<svg width="60" height="60" viewBox="0 0 60 60" fill="none" xmlns="http://www.w3.org/2000/svg">
<path fill-rule="evenodd" clip-rule="evenodd" d="M26.6015 0.13067C23.0642 0.534499 19.2738 1.68715 16.1718 3.30235C13.2232 4.83774 10.758 6.69727 8.31442 9.22922C4.33415 13.3532 1.69731 18.3545 0.589306 23.8815C0.0786024 26.4286 -0.0392882 27.8958 0.0328993 30.8009C0.144931 35.3024 0.652118 37.095 2.26122 38.6776L2.80333 39.2107L2.33681 40.8456C1.40364 44.1159 0.713993 47.2488 0.274188 50.2148C0.123485 51.2317 0.0647743 52.3513 0.062079 54.2578C0.0589149 56.6614 0.0815321 56.9677 0.318837 57.7219C0.806454 59.2719 1.61329 60 2.84341 60C3.75079 60 4.49188 59.5862 5.52899 58.5006C8.52782 55.3615 11.9075 47.6659 14.1302 38.9159C14.4153 37.7933 14.6709 36.8525 14.6981 36.8254C14.7253 36.7982 15.1339 36.7222 15.6062 36.6566C17.8529 36.3447 20.5105 37.475 21.9021 39.3347C22.9799 40.7748 23.3779 42.0988 23.2881 43.9439C23.194 45.8759 22.6698 47.0598 21.1589 48.7528C19.9862 50.0671 19.4531 51.4393 19.4531 53.1445C19.4531 55.4046 20.5247 57.3837 22.4074 58.6004C23.615 59.381 24.9247 59.6782 28.1522 59.9041C37.8188 60.5807 47.3372 56.3704 53.4999 48.6914C56.8336 44.5377 59.2187 38.899 59.7705 33.8672C59.8447 33.1904 59.953 32.5452 60.0112 32.4333C60.161 32.1455 60.1501 27.2705 60 27.3633C59.9294 27.4069 59.8828 27.2513 59.8828 26.9716C59.8828 26.7165 59.7767 25.8829 59.647 25.119C58.5613 18.7253 55.7911 13.3568 51.2171 8.78286C46.2818 3.84751 40.0991 0.866608 33.2565 0.123639C31.9357 -0.0197983 27.8827 -0.0154623 26.6015 0.13067ZM28.0078 2.46059C18.242 3.21844 9.64474 9.0184 5.25149 17.8125C4.13434 20.0489 3.18993 22.9623 2.76325 25.4883C2.15868 29.0672 2.40606 34.4555 3.24559 35.998C3.41458 36.3084 3.58403 36.5621 3.62212 36.5618C3.6602 36.5614 3.89798 35.9945 4.15052 35.302C5.81259 30.7438 8.03083 26.441 9.80681 24.3305L10.5511 23.4459L10.0236 22.6754C9.33665 21.6722 9.08423 20.8338 9.08845 19.5703C9.0922 18.4604 9.30489 17.6842 9.81477 16.9198C10.218 16.3153 16.4782 9.53462 16.7179 9.44262C17.0837 9.30223 17.6745 9.38356 17.9684 9.61465C18.3375 9.90493 18.3981 10.1077 18.9826 13.0078C19.8295 17.2096 20.0254 19.8946 19.5879 21.3006C19.0734 22.9534 17.7328 24.2569 15.9961 24.7925C15.7382 24.8721 15.5408 24.9962 15.5573 25.0684C15.5738 25.1406 15.6484 25.736 15.7229 26.3914C15.8771 27.7479 15.7206 30.6087 15.3668 32.9004L15.1632 34.2188H16.3768C17.8738 34.2188 18.9741 34.4543 20.2551 35.049C22.4559 36.0707 23.8871 37.4835 24.9052 39.6394C25.5768 41.0613 25.7232 41.795 25.7178 43.7109C25.7132 45.3183 25.6923 45.4703 25.33 46.5234C24.8756 47.8444 24.2096 48.9552 23.1521 50.1563C22.2024 51.2347 21.8845 51.9843 21.8845 53.1445C21.8845 54.731 22.683 56.0414 24.0589 56.7131C25.1975 57.2689 26.8189 57.4732 30.0586 57.4689C32.2898 57.4659 33.0161 57.4207 34.2773 57.2064C37.316 56.6898 39.8632 55.8504 42.5687 54.4738C49.1784 51.1106 54.2706 45.0222 56.4218 37.9102C57.8336 33.2421 57.9604 27.9311 56.7713 23.2617C54.0125 12.4284 44.9786 4.27794 33.9843 2.70294C32.0704 2.42872 29.6721 2.33145 28.0078 2.46059ZM28.2422 4.95423C26.2595 5.63262 24.8608 7.05329 24.3164 8.94188C24.0441 9.88606 24.0659 11.3439 24.3669 12.3131C25.2265 15.0825 28.1022 16.8865 30.9022 16.4127C33.1994 16.024 35.0312 14.3905 35.6825 12.15C35.9336 11.2859 35.9338 9.80977 35.6826 8.93872C34.7781 5.8009 31.2652 3.91981 28.2422 4.95423ZM28.63 7.37649C26.3721 8.40165 25.8303 11.2991 27.5711 13.0399C28.2587 13.7275 28.9463 13.9991 30 13.9991C31.0536 13.9991 31.7413 13.7275 32.4288 13.0399C33.827 11.6418 33.8058 9.392 32.382 8.07973C31.6194 7.37672 31.0454 7.1536 30 7.1536C29.3863 7.1536 28.9728 7.22087 28.63 7.37649ZM42.47 10.4864C39.7684 11.0742 37.849 13.4551 37.8529 16.2135C37.8554 17.8985 38.4144 19.267 39.5737 20.4263C42.6717 23.5243 47.936 22.2598 49.3492 18.0781C49.5533 17.474 49.6154 17.0341 49.6099 16.2305C49.5979 14.4582 49.0068 13.1277 47.6902 11.9087C46.8928 11.1703 46.0042 10.7156 44.9019 10.4821C43.9554 10.2815 43.4074 10.2824 42.47 10.4864ZM42.6765 12.9473C41.0526 13.4542 39.9999 15.1791 40.3056 16.8323C40.6434 18.6601 42.1078 19.7848 43.9897 19.6618C45.0013 19.5957 45.5911 19.3179 46.2601 18.592C46.9393 17.8552 47.1412 17.3359 47.1558 16.2891C47.1661 15.5479 47.1164 15.305 46.8385 14.7394C46.0834 13.2014 44.3095 12.4377 42.6765 12.9473ZM14.1862 15.6497C12.8649 17.0677 11.84 18.2709 11.7105 18.5562C11.1261 19.8432 11.7873 21.5734 13.1277 22.2647C14.876 23.1663 17.0857 22.0351 17.3845 20.0855C17.425 19.821 17.4054 19.03 17.3409 18.3277C17.2002 16.7971 16.6602 13.4562 16.532 13.324C16.4818 13.2722 15.4262 14.3188 14.1862 15.6497ZM48.5156 24.1043C45.3126 24.6398 43.0247 27.7986 43.5818 30.9158C44.2951 34.9078 48.6588 37.069 52.1982 35.1832C52.9622 34.7762 54.2293 33.5091 54.6363 32.7451C55.8369 30.4918 55.4088 27.6413 53.5966 25.8218C52.2756 24.4954 50.2571 23.8131 48.5156 24.1043ZM12.13 25.4378C8.70149 28.6745 3.952 41.3516 2.69376 50.625C2.26169 53.8097 2.40653 57.5391 2.96224 57.5391C3.03466 57.5391 3.38856 57.2358 3.74868 56.8652C7.23841 53.2739 11.8908 40.7106 13.068 31.6992C13.4559 28.73 13.4027 25.6199 12.9535 25.0056C12.8174 24.8194 12.7447 24.8576 12.13 25.4378ZM48.5156 26.594C47.5408 26.8915 46.7539 27.5529 46.2756 28.4766C45.8887 29.2235 45.8819 30.6473 46.2617 31.418C47.1516 33.2243 49.232 33.927 50.992 33.0158C51.8077 32.5936 52.4915 31.8189 52.7191 31.0591C52.946 30.302 52.8829 29.1933 52.5753 28.5328C51.886 27.0527 49.9857 26.1451 48.5156 26.594ZM0.0498915 29.9414C0.0500087 31.3594 0.0668837 31.9234 0.0875087 31.1947C0.108134 30.4661 0.108016 29.3059 0.0873915 28.6166C0.0666493 27.9273 0.0497743 28.5234 0.0498915 29.9414ZM42.47 37.9083C39.7684 38.4961 37.849 40.877 37.8529 43.6354C37.8554 45.3204 38.4144 46.6889 39.5737 47.8481C41.387 49.6614 44.0775 50.0794 46.4519 48.9166C49.458 47.4448 50.5585 43.3897 48.7308 40.5209C47.9148 39.2401 46.4358 38.229 44.9032 37.9042C43.9554 37.7033 43.4077 37.7043 42.47 37.9083ZM42.5864 40.4023C41.6791 40.7268 41.0798 41.2666 40.6439 42.1521C40.3241 42.8016 40.2651 43.05 40.2712 43.721C40.2805 44.7263 40.6857 45.6132 41.4389 46.2761C42.097 46.8554 42.827 47.1101 43.8197 47.1068C45.1293 47.1025 46.2016 46.4188 46.8486 45.1758C47.255 44.3952 47.2869 43.0984 46.9195 42.2987C46.1618 40.6499 44.2425 39.8098 42.5864 40.4023Z" fill="#0B2545"/>
</svg>
