<svg width="32" height="60" viewBox="0 0 32 60" fill="none" xmlns="http://www.w3.org/2000/svg">
<path fill-rule="evenodd" clip-rule="evenodd" d="M2.86598 0.342539C2.52742 0.681094 2.52344 0.700547 2.52344 2.02301C2.52344 3.48176 2.76766 4.71305 3.27074 5.79023C4.18211 7.74187 6.06555 9.41766 8.16004 10.1409C9.12262 10.4733 9.20781 10.4818 11.9863 10.5231L14.8281 10.5652V11.7279V12.8906H7.84645H0.864766L0.522226 13.2332L0.179688 13.5757V18.1641V22.7524L0.522226 23.095C0.86289 23.4356 0.872382 23.4375 2.27711 23.4375H3.68945L3.72601 36.6504C3.76234 49.8209 3.76328 49.8661 4.01758 50.7422C4.65098 52.9239 5.53527 54.5162 6.94914 56.0203C8.90559 58.1018 10.9946 59.2698 13.761 59.8291C15.0843 60.0967 17.7692 60.0123 19.0469 59.6628C21.4214 59.0135 22.8809 58.1584 24.6719 56.3666C26.429 54.6089 27.2853 53.1564 27.9791 50.7568L28.2375 49.8633L28.274 36.6504L28.3105 23.4375H29.7229C31.1276 23.4375 31.1371 23.4356 31.4778 23.095L31.8203 22.7524V18.1641V13.5757L31.4778 13.2332L31.1352 12.8906H24.1536H17.1719V11.7188V10.5469H19.7312C21.9105 10.5469 22.4273 10.512 23.2108 10.3116C26.2056 9.54562 28.4753 7.27594 29.2413 4.28109C29.4094 3.62355 29.4766 2.97914 29.4766 2.02301C29.4766 0.700547 29.4726 0.681094 29.134 0.342539L28.7915 0H25.4028C22.393 0 21.9112 0.0263672 21.0939 0.235312C19.5571 0.628359 18.5402 1.20785 17.3968 2.34223C16.8436 2.8909 16.303 3.47168 16.1956 3.63281L16 3.92578L15.8044 3.63281C15.697 3.47168 15.1564 2.8909 14.6032 2.34223C13.4598 1.20785 12.4429 0.628359 10.9061 0.235312C10.0888 0.0263672 9.60695 0 6.59723 0H3.20851L2.86598 0.342539ZM4.99223 3.01758C5.23105 4.97789 6.52012 6.72832 8.35246 7.58039C9.40844 8.07129 10.304 8.19481 12.8437 8.19949L14.7851 8.20312L14.7031 7.5293C14.4643 5.56898 13.1752 3.81855 11.3429 2.96648C10.2869 2.47559 9.39133 2.35207 6.85164 2.34738L4.9102 2.34375L4.99223 3.01758ZM22.2503 2.46762C19.7636 2.79164 17.6044 5.00367 17.2952 7.54418L17.2114 8.23289L19.7405 8.17266C22.4765 8.1075 22.9891 8.00754 24.1864 7.30594C25.7057 6.41555 26.7957 4.75887 27.0078 3.01758L27.0898 2.34375L25.0312 2.35863C23.899 2.36684 22.6476 2.41582 22.2503 2.46762ZM2.52344 18.1641V21.0938H8.67578H14.8281V18.1641V15.2344H8.67578H2.52344V18.1641ZM17.1719 18.1641V21.0938H23.3242H29.4766V18.1641V15.2344H23.3242H17.1719V18.1641ZM6.06648 36.2988L6.10352 49.1602L6.36309 50.0977C7.34969 53.6609 10.0792 56.383 13.5977 57.3127C14.9114 57.6599 17.0886 57.6599 18.4023 57.3127C21.9269 56.3814 24.6236 53.6905 25.633 50.0977L25.8965 49.1602L25.9335 36.2988L25.9707 23.4375H21.5712H17.1719V25.88V28.3226L17.9795 28.8043C19.0424 29.4383 19.2388 29.4771 19.8086 29.166C21.4216 28.2852 21.5346 28.2422 22.2365 28.2422C22.849 28.2422 22.973 28.2831 23.2746 28.5847L23.6172 28.9273V38.8726C23.6172 49.9703 23.6547 49.4154 22.7845 51.1929C21.877 53.0466 19.9088 54.6103 17.8211 55.1365C16.923 55.3628 15.0741 55.3623 14.1789 55.1355C12.0687 54.6009 10.1768 53.0998 9.23266 51.2107C8.34402 49.4328 8.38281 49.9965 8.38281 38.8726V28.9273L8.72535 28.5847C9.02699 28.2831 9.15098 28.2422 9.76352 28.2422C10.4654 28.2422 10.5784 28.2852 12.1914 29.166C12.7612 29.4771 12.9576 29.4383 14.0205 28.8043L14.8281 28.3226V25.88V23.4375H10.4288H6.02934L6.06648 36.2988ZM10.7289 39.4189C10.7302 44.2642 10.7793 47.9694 10.8483 48.4473C11.1689 50.6652 13.0236 52.5295 15.2187 52.8404C16.8664 53.0737 18.5017 52.5408 19.6251 51.4045C20.3189 50.7026 20.6256 50.229 20.9648 49.3359C21.2037 48.7068 21.2104 48.4837 21.247 39.9436L21.2845 31.1958L20.7809 31.4475C20.0625 31.8066 18.3857 31.8081 17.6699 31.4502L17.1719 31.2013V34.0666V36.9321L16.8293 37.2746C16.5606 37.5432 16.3818 37.6172 16 37.6172C15.6182 37.6172 15.4394 37.5432 15.1707 37.2746L14.8281 36.9321V34.0666V31.2013L14.3301 31.4502C13.933 31.6487 13.6183 31.6992 12.7773 31.6992C11.9364 31.6992 11.6216 31.6487 11.2246 31.4502L10.7266 31.2013L10.7289 39.4189Z" fill="#0B2545"/>
</svg>
