<svg width="44" height="60" viewBox="0 0 44 60" fill="none" xmlns="http://www.w3.org/2000/svg">
<path fill-rule="evenodd" clip-rule="evenodd" d="M11.2336 0.245625C11.0886 0.380742 10.9204 0.621445 10.86 0.780586C10.7994 0.939727 10.7501 2.18707 10.7502 3.55254C10.7504 7.14855 10.7354 7.13039 13.71 7.14188L15.4397 7.14844L15.4092 12.9028L15.3788 18.6572L14.4787 18.9853C13.1682 19.4631 10.9744 20.6331 9.69525 21.5365C8.26088 22.5496 5.76045 25.05 4.74736 26.4844C3.8926 27.6947 2.77088 29.7741 2.21365 31.1815C0.445174 35.6474 0.335603 41.0225 1.91904 45.6337C4.39709 52.8504 10.4687 58.1394 18.035 59.6723C19.1867 59.9057 19.7136 59.9414 21.9999 59.9414C24.2965 59.9414 24.8106 59.9062 25.9843 59.6686C35.2108 57.8009 42.0548 50.3618 43.0912 41.0742C43.65 36.0676 42.2423 30.7178 39.2525 26.4844C38.2394 25.05 35.739 22.5496 34.3046 21.5365C33.0255 20.6331 30.8317 19.4631 29.5211 18.9853L28.621 18.6572L28.5907 12.9129L28.5602 7.16859L30.4657 7.12922C32.5842 7.08539 32.8836 6.99234 33.124 6.30293C33.2804 5.8541 33.2939 1.18559 33.1399 0.780586C33.0794 0.621445 32.9113 0.380742 32.7663 0.245625C32.5026 0 32.501 0 21.9999 0C11.4989 0 11.4972 0 11.2336 0.245625ZM13.2109 3.51562V4.6875H21.9999H30.789V3.51562V2.34375H21.9999H13.2109V3.51562ZM17.8984 8.26172V9.375H19.1933C20.9627 9.375 21.414 9.62309 21.414 10.5959C21.414 10.8899 21.3137 11.1243 21.0723 11.3946L20.7307 11.7773L19.3145 11.8165L17.8984 11.8555V12.9591V14.0625H19.1952C20.536 14.0625 20.8582 14.1444 21.2063 14.5743C21.4414 14.8645 21.4754 15.6743 21.2638 15.9429C20.8725 16.4394 20.5768 16.5234 19.2199 16.5234H17.8984V18.1699C17.8984 20.4841 17.9965 20.348 15.789 21.0974C14.5288 21.5252 12.2849 22.6893 11.1042 23.5277C9.68248 24.5374 7.74678 26.4735 6.73931 27.8933C5.20533 30.0554 4.0106 32.8663 3.52767 35.4492C3.19873 37.2086 3.22521 40.8647 3.57865 42.4997C4.4115 46.3514 6.00935 49.2994 8.74955 52.0395C10.8569 54.147 12.8263 55.4268 15.496 56.4241C20.1147 58.1494 25.4492 57.9352 29.9101 55.8452C34.537 53.6776 38.1878 49.5969 39.7965 44.7948C40.5084 42.6695 40.6781 41.5563 40.685 38.9648C40.6899 37.1504 40.6419 36.3565 40.4722 35.4492C39.9893 32.8663 38.7945 30.0554 37.2606 27.8933C36.2531 26.4735 34.3174 24.5374 32.8957 23.5277C31.715 22.6893 29.4711 21.5252 28.2109 21.0974C26.5145 20.5215 26.4498 20.4899 26.2748 20.1514C26.1281 19.8679 26.1015 18.8428 26.1015 13.4824V7.14844H21.9999H17.8984V8.26172ZM21.0071 30.5876C20.2146 30.7284 19.5378 30.9993 18.5529 31.5698C17.7627 32.0276 17.6686 32.0527 16.6023 32.0904C15.3642 32.1341 14.8428 31.9973 12.8614 31.1091C11.7006 30.5886 10.9194 30.4695 10.4944 30.748C10.1081 31.0011 9.27349 32.4833 8.78494 33.7841C7.70459 36.6601 7.56256 39.5633 8.35556 42.5566C8.71345 43.9078 9.82146 46.1838 10.6557 47.282C14.3277 52.1153 20.517 54.1132 26.2387 52.3119C27.6507 51.8674 28.5745 51.4223 29.8577 50.568C34.651 47.3769 37.0557 41.4561 35.8333 35.8549C35.4028 33.8822 34.1737 31.1858 33.5055 30.748C33.0805 30.4695 32.2993 30.5886 31.1385 31.1091C29.157 31.9973 28.6357 32.1341 27.3976 32.0904C26.3224 32.0524 26.2422 32.0305 25.4081 31.5473C24.9301 31.2705 24.2445 30.9451 23.8847 30.8243C23.0835 30.5552 21.7888 30.4488 21.0071 30.5876ZM21.0777 33.0574C20.8605 33.1237 20.241 33.417 19.7008 33.709C18.4545 34.3828 17.7511 34.5676 16.4335 34.5671C15.1309 34.5668 14.1743 34.3484 12.8367 33.7461C12.2689 33.4904 11.7746 33.2812 11.7383 33.2812C11.702 33.2812 11.4912 33.6731 11.2698 34.1522C10.0727 36.743 9.97978 40.1098 11.0281 42.9009C12.0928 45.7352 14.1696 48.0123 16.9023 49.3416C18.7624 50.2464 19.6958 50.4492 21.9999 50.4492C24.2186 50.4492 25.1845 50.2526 26.8898 49.4537C32.313 46.9133 35.0178 40.6876 33.1154 35.1244C32.8541 34.36 32.3488 33.2812 32.2521 33.2812C32.221 33.2812 31.731 33.4904 31.1632 33.7461C29.8256 34.3484 28.869 34.5668 27.5663 34.5671C26.2271 34.5676 25.6194 34.4023 24.1531 33.6384C23.1595 33.1207 22.8517 33.0157 22.2219 32.9797C21.8097 32.9561 21.2949 32.9911 21.0777 33.0574Z" fill="#0B2545"/>
</svg>
