<svg width="60" height="60" viewBox="0 0 60 60" fill="none" xmlns="http://www.w3.org/2000/svg">
<path fill-rule="evenodd" clip-rule="evenodd" d="M36.2696 0.128777C24.7396 1.33007 14.7232 6.9778 7.90045 16.1249C3.80709 21.6126 1.25217 27.9002 0.286307 34.8633C0.023924 36.7546 -0.0731072 41.6347 0.113104 43.5774C0.514588 47.7675 1.70908 52.5234 3.17193 55.757C3.48763 56.4549 3.54506 56.5124 4.24303 56.8281C7.50435 58.3036 12.3437 59.511 16.5108 59.8889C18.7537 60.0924 23.485 59.9707 25.5469 59.6566C34.4456 58.3008 42.0974 54.4746 48.286 48.2859C54.9488 41.6232 58.913 33.1714 59.878 23.5716C60.0542 21.8188 60.0257 17.7848 59.8235 15.8789C59.396 11.8476 58.2442 7.37307 56.8281 4.243C56.5124 3.54503 56.455 3.4876 55.757 3.1719C52.5671 1.72874 47.6816 0.49323 43.711 0.125613C42.1641 -0.0177074 37.6567 -0.0157152 36.2696 0.128777ZM47.8713 12.071L57.5977 21.7982L57.6342 20.4792C57.7385 16.7196 57.0362 12.2265 55.7243 8.26171C54.718 5.22046 54.8263 5.38721 53.5383 4.89585C49.1038 3.20401 44.4325 2.34374 39.6805 2.34374H38.1451L47.8713 12.071ZM34.336 2.77487C32.3503 3.09819 28.4766 4.04565 28.4766 4.20796C28.4766 4.32139 55.767 31.5771 55.8218 31.5185C56.0243 31.3021 57.0112 27.1206 57.2426 25.4986L57.3247 24.9228L46.2115 13.8091C38.3919 5.98921 35.0287 2.69999 34.8635 2.71124C34.7345 2.72003 34.4971 2.74874 34.336 2.77487ZM24.2578 5.83874C21.6745 7.0296 18.9985 8.6871 16.5825 10.5927C15.0665 11.7886 11.7826 15.0746 10.5689 16.6105C8.67506 19.007 6.76279 22.1316 5.66861 24.6178L5.13869 25.8221L19.6604 40.3439L34.1822 54.8657L35.5774 54.2341C38.1719 53.0597 40.9858 51.3294 43.3982 49.4252C44.9156 48.2274 48.1947 44.9464 49.4216 43.3982C51.3167 41.0067 53.0558 38.1805 54.234 35.5775L54.8656 34.1823L40.3529 19.6693C32.371 11.6871 25.8137 5.15788 25.7815 5.15987C25.7492 5.16186 25.0635 5.46737 24.2578 5.83874ZM35.8008 22.6682C35.6074 22.7556 34.9772 23.3057 34.4004 23.8905L33.3516 24.9541L32.5661 24.1958C31.8157 23.4715 31.6074 23.3699 31.0047 23.4349C30.4004 23.5001 29.8868 24.2829 30.0622 24.8712C30.1058 25.0172 30.4787 25.4809 30.8911 25.9015L31.6409 26.6662L30.824 27.4768L30.007 28.2874L29.1946 27.5031C28.5427 26.8737 28.3094 26.7187 28.0135 26.7187C27.2363 26.7187 26.7188 27.2407 26.7188 28.0247C26.7188 28.3066 26.8845 28.5538 27.5031 29.1946L28.2874 30.007L27.4769 30.8239L26.6663 31.6408L25.9015 30.8911C25.4809 30.4787 25.0172 30.1058 24.8712 30.0622C24.2829 29.8868 23.5001 30.4004 23.4349 31.0046C23.3699 31.6072 23.4715 31.8157 24.1957 32.566L24.954 33.3514L23.8445 34.4563C23.1999 35.0982 22.6825 35.72 22.6098 35.9402C22.3361 36.7698 23.2302 37.6639 24.0598 37.3902C24.28 37.3175 24.9018 36.8001 25.5437 36.1555L26.6486 35.046L27.434 35.8043C28.1843 36.5285 28.3928 36.6301 28.9954 36.5651C29.5996 36.4999 30.1132 35.7171 29.9378 35.1288C29.8942 34.9828 29.5213 34.5191 29.1089 34.0985L28.3592 33.3337L29.1761 32.5232L29.993 31.7126L30.8054 32.4969C31.4462 33.1155 31.6934 33.2812 31.9753 33.2812C32.7593 33.2812 33.2813 32.7637 33.2813 31.9865C33.2813 31.6907 33.1263 31.4573 32.4969 30.8054L31.7126 29.993L32.5232 29.176L33.3338 28.3591L34.0985 29.1089C34.5191 29.5213 34.9828 29.8942 35.1288 29.9378C35.7171 30.1132 36.4999 29.5996 36.5651 28.9953C36.6301 28.3928 36.5285 28.1843 35.8043 27.4339L35.046 26.6485L36.1555 25.5437C37.4216 24.2829 37.619 23.8993 37.3228 23.2752C37.2102 23.038 36.9687 22.793 36.7409 22.6848C36.2771 22.4647 36.2516 22.4642 35.8008 22.6682ZM3.71416 30.0293C3.33002 31.4358 2.95619 33.1869 2.7476 34.5571L2.66931 35.0712L13.7858 46.1926L24.9024 57.314L25.4883 57.2386C26.9579 57.0493 31.2958 56.0301 31.5185 55.8218C31.5771 55.7669 4.32142 28.4766 4.20799 28.4766C4.16967 28.4766 3.94748 29.1753 3.71416 30.0293ZM2.34377 39.6805C2.34377 44.4324 3.20404 49.1038 4.89588 53.5383C5.38724 54.8263 5.22049 54.718 8.26174 55.7243C12.2265 57.0362 16.7196 57.7385 20.4792 57.6342L21.7982 57.5976L12.071 47.8713L2.34377 38.1451V39.6805Z" fill="#0B2545"/>
</svg>
