<svg width="50" height="60" viewBox="0 0 50 60" fill="none" xmlns="http://www.w3.org/2000/svg">
<path fill-rule="evenodd" clip-rule="evenodd" d="M19.3957 0.184702C14.2799 1.00607 9.76726 3.36787 6.3414 7.01708C-1.2977 15.1544 -1.78813 27.6198 5.18675 36.3695L5.92035 37.2897L4.62671 38.6009C2.75875 40.4942 2.72031 40.7258 4.05718 42.0317C6.7539 44.6658 10.3267 46.8101 14.0802 48.0475C15.0575 48.3696 16.4508 48.7445 17.1766 48.8804C17.9023 49.0165 18.5621 49.1466 18.6426 49.1695C18.7562 49.202 18.7891 50.1563 18.7891 53.4339V57.6563H17.2675C15.7544 57.6563 15.7438 57.6581 15.3659 57.9959C15.0514 58.2769 14.9857 58.4203 14.9857 58.8281C14.9857 59.236 15.0514 59.3794 15.3659 59.6604L15.7459 60H25H34.2541L34.6341 59.6604C34.9486 59.3794 35.0143 59.236 35.0143 58.8281C35.0143 58.4203 34.9486 58.2769 34.6341 57.9959L34.2541 57.6563H32.4395H30.625V52.9651C30.625 49.3165 30.6576 48.263 30.7715 48.2248C33.1303 47.4342 35.5248 46.3038 37.3189 45.134C45.1091 40.0542 49.7203 31.6075 49.7256 22.4076C49.7296 15.5201 47.3158 9.29779 42.5856 4.00208C41.1386 2.38197 40.8691 2.40376 38.9348 4.2974L37.5557 5.6474L36.8315 5.0447C33.9667 2.66064 30.3985 1.01298 26.5063 0.276928C25.0898 0.00915484 20.8334 -0.0461576 19.3957 0.184702ZM21.0742 2.46845C12.2676 3.15517 4.82195 9.77779 3.07 18.4825C2.93523 19.1521 2.86175 19.7367 2.90664 19.7816C2.95152 19.8265 3.73539 19.8633 4.64839 19.8633C6.06109 19.8633 6.4396 19.8224 7.1875 19.5888C9.06964 19.0011 10.6383 17.9079 11.7845 16.3851C13.2298 14.4647 14.4298 13.6669 16.7127 13.1087C17.8282 12.836 18.4293 12.6074 19.4337 12.0737C20.1428 11.697 21.0654 11.2999 21.484 11.1915C22.4311 10.9461 24.0715 10.9427 25.1758 11.1839C26.7864 11.5357 28.5067 11.3189 30.0391 10.5709C31.3388 9.93646 32.6607 8.59537 33.3052 7.25708C33.5713 6.70455 33.7891 6.14978 33.7891 6.02427C33.7891 5.86853 33.5382 5.64271 32.998 5.31248C30.3183 3.67431 27.3632 2.72509 24.1334 2.46529C23.3022 2.39849 22.5375 2.35126 22.4342 2.3604C22.3307 2.36966 21.7187 2.4183 21.0742 2.46845ZM40.0939 6.6504L39.315 7.44142L39.8423 8.02736C41.2799 9.62509 43.1019 12.9021 43.9145 15.3516C46.2953 22.5287 44.7911 30.652 39.9977 36.5039C39.0594 37.6493 37.1869 39.437 36.0162 40.305C29.2441 45.3263 20.299 46.1424 12.7539 42.4273C11.1961 41.6603 9.7839 40.7567 8.5246 39.7214L7.69386 39.0383L6.89746 39.8408L6.10105 40.6433L6.49785 40.991C10.2116 44.2457 15.1404 46.3528 20.2791 46.8826C21.9427 47.0541 24.9377 46.9667 26.5218 46.7004C37.6498 44.8297 45.858 36.1817 47.1549 24.9618C47.3346 23.4065 47.238 19.7797 46.9783 18.3399C46.1866 13.9485 44.4937 10.1724 41.8428 6.88478C41.3881 6.32087 40.9838 5.85939 40.9443 5.85939C40.9049 5.85939 40.5222 6.2154 40.0939 6.6504ZM35.5076 8.32911C33.955 11.4604 30.9191 13.4917 27.3611 13.7801C26.5205 13.8482 26.0041 13.8004 24.0231 13.4711C23.0004 13.3011 22.0676 13.4545 21.1577 13.9426C19.5748 14.7915 18.7518 15.1234 17.417 15.451C15.571 15.9039 14.9808 16.2755 13.8694 17.6844C12.0079 20.0442 9.91914 21.4375 7.22886 22.1136C6.64187 22.2612 5.9248 22.3167 4.56414 22.3199L2.70261 22.3242L2.76671 23.6719C2.83925 25.1952 3.16597 26.9372 3.68019 28.5424L4.02941 29.6326L4.53566 29.4087C5.53726 28.9656 6.57273 28.8018 8.00781 28.8593C10.3232 28.952 11.8513 29.6133 13.7339 31.3368C15.1269 32.6121 15.5811 32.8023 17.5261 32.9245C19.2766 33.0346 20.1857 33.2818 21.2816 33.9461C23.9134 35.5409 25.1813 38.6676 24.4765 41.8247L24.3875 42.2237L25.0963 42.1495C26.0878 42.046 27.4676 41.7498 28.5453 41.4094L29.4606 41.1203L28.9002 40.4908C27.0682 38.4328 26.3065 35.7226 26.8192 33.0865C27.164 31.3142 27.0787 30.616 26.3136 28.9453C25.7311 27.6737 25.5477 26.6828 25.6146 25.1699C25.7132 22.9456 26.365 21.4879 27.9883 19.8615C29.0628 18.7852 30.0324 18.2187 31.5668 17.7709C33.0541 17.337 33.1124 17.3054 34.1019 16.3985C34.6066 15.9361 35.3096 15.3408 35.6641 15.0758C36.5419 14.4196 38.281 13.542 39.3191 13.2312C39.7902 13.0901 40.1926 12.9608 40.2133 12.944C40.2686 12.8987 39.3578 11.4238 38.7393 10.557C38.4435 10.1425 37.6925 9.27587 37.0703 8.63111L35.9391 7.45888L35.5076 8.32911ZM40.4854 15.4191C38.7623 15.8815 37.5032 16.6202 35.8643 18.1306C34.6768 19.2251 33.705 19.7622 32.3153 20.0919C29.5111 20.7573 27.7119 23.3904 28.0639 26.3138C28.1225 26.8003 28.3302 27.4671 28.6326 28.1384C28.8945 28.7201 29.1863 29.4935 29.281 29.857C29.5068 30.7242 29.4994 32.0947 29.2627 33.2394C28.7369 35.7817 29.609 38.1413 31.6499 39.6979L32.0304 39.9881L32.8219 39.5161C37.6916 36.6114 41.1072 31.7538 42.2522 26.1041C42.4832 24.9643 42.5186 24.4429 42.5127 22.2656C42.5069 20.1176 42.4674 19.5675 42.2447 18.5345C41.9262 17.0572 41.3839 15.3217 41.2279 15.2807C41.1648 15.2642 40.8307 15.3265 40.4854 15.4191ZM7.07031 31.2968C6.65136 31.3341 6.02968 31.4581 5.68878 31.5722L5.06898 31.7797L5.45957 32.475C6.41078 34.1685 8.20269 36.2755 9.87894 37.6715C12.9913 40.2633 16.6902 41.7904 20.9605 42.2462L21.6672 42.3217L21.8652 41.9065C22.9151 39.7049 21.8133 36.8244 19.5177 35.7694C18.964 35.5149 18.599 35.4467 17.416 35.3769C15.0389 35.2365 13.8616 34.7585 12.2842 33.2937C10.5671 31.6989 9.05535 31.1199 7.07031 31.2968ZM26.875 49.1131C26.1796 49.2358 24.689 49.3649 23.4473 49.41L21.25 49.4898V51.1706V52.8516H24.7656H28.2812V50.8594C28.2812 49.7637 28.2418 48.8736 28.1934 48.8816C28.145 48.8895 27.5518 48.9936 26.875 49.1131ZM21.25 56.4844V57.6563H24.7656H28.2812V56.4844V55.3125H24.7656H21.25V56.4844Z" fill="#0B2545"/>
</svg>
