<svg width="60" height="54" viewBox="0 0 60 54" fill="none" xmlns="http://www.w3.org/2000/svg">
<path fill-rule="evenodd" clip-rule="evenodd" d="M29.3327 0.79828C29.0045 1.08047 29.0038 1.08375 28.9636 2.79105C28.9249 4.43051 28.9129 4.5034 28.6706 4.55848C28.5316 4.59012 23.1973 5.61844 16.8164 6.84375C10.4355 8.06906 5.07527 9.10066 4.90477 9.13617L4.5948 9.20074L4.55016 7.75863C4.50129 6.18293 4.3957 5.87367 3.84035 5.68008C3.34746 5.50828 2.82199 5.73785 2.62406 6.21129C2.4143 6.71355 2.38535 13.9747 2.59078 14.5642C2.71676 14.9254 3.19898 15.2812 3.56262 15.2812C3.71309 15.2812 3.74344 15.693 3.77344 18.1431C3.80836 20.9884 3.81023 21.0068 4.09266 21.3071L4.37684 21.6094H30H55.6232L55.9073 21.3071C56.1898 21.0068 56.1916 20.9884 56.2266 18.1431C56.2566 15.693 56.2869 15.2812 56.4374 15.2812C56.801 15.2812 57.2832 14.9254 57.4092 14.5642C57.6146 13.9747 57.5857 6.71355 57.3759 6.21129C57.178 5.73785 56.6525 5.50828 56.1596 5.68008C55.6043 5.87367 55.4987 6.18293 55.4498 7.75863L55.4052 9.20074L55.0952 9.13617C54.9247 9.10066 49.5645 8.06906 43.1836 6.84375C36.8027 5.61844 31.4684 4.59012 31.3294 4.55848C31.0871 4.5034 31.0751 4.43051 31.0364 2.79105C30.9962 1.08375 30.9955 1.08047 30.6673 0.79828C30.2471 0.436991 29.7529 0.436991 29.3327 0.79828ZM17.0808 8.81918L4.57172 11.2383L4.57102 12.2637L4.57031 13.2891H30H55.4297L55.429 12.2637L55.4282 11.2383L42.7434 8.80242C35.7668 7.46273 29.9531 6.37406 29.8242 6.38332C29.6953 6.39246 23.9607 7.48863 17.0808 8.81918ZM5.74219 17.4492V19.6172H30H54.2578V17.4492V15.2812H30H5.74219V17.4492ZM5.43234 23.7621C5.18637 23.9737 5.10938 24.145 5.10938 24.4805C5.10938 24.9916 5.56324 25.4766 6.04172 25.4766H6.32812V34.6758V43.875H4.75266C3.25629 43.875 3.16066 43.8892 2.84836 44.1578C2.52281 44.4376 2.51918 44.4562 2.4791 46.0184L2.43867 47.5962L1.51113 47.6498C0.744258 47.6943 0.532969 47.7511 0.291797 47.9777L0 48.2518V50.5805C0 52.8966 0.00152344 52.9106 0.287695 53.1967L0.575273 53.4844H30.0062H59.4373L59.7772 53.1204L60.1172 52.7564V50.4056C60.1172 49.1126 60.0816 48.0904 60.038 48.1338C59.9944 48.1774 59.8368 48.0984 59.6876 47.9583C59.4701 47.7539 59.2331 47.693 58.4889 47.6498L57.5613 47.5962L57.5209 46.0184C57.4808 44.4562 57.4772 44.4376 57.1516 44.1578C56.8393 43.8892 56.7437 43.875 55.2473 43.875H53.6719V34.6758V25.4766H53.9583C54.1159 25.4766 54.3901 25.3515 54.5677 25.1988C55.0202 24.8095 55.0202 24.1514 54.5677 23.7621L54.2447 23.4844H50.7422H47.2397L46.9167 23.7621C46.4641 24.1514 46.4641 24.8095 46.9167 25.1988C47.0943 25.3515 47.3685 25.4766 47.5261 25.4766H47.8125V34.6758V43.875H45.5273H43.2422V34.6758V25.4766H43.4843C44.3934 25.4766 44.8726 24.401 44.2436 23.7721L43.956 23.4844H40.3935H36.8311L36.521 23.7717C35.8614 24.3831 36.334 25.4766 37.2579 25.4766H37.5V34.6758V43.875H35.2148H32.9297V34.6758V25.4766H33.2161C33.3737 25.4766 33.6479 25.3515 33.8255 25.1988C34.278 24.8095 34.278 24.1514 33.8255 23.7621L33.5025 23.4844H30H26.4975L26.1745 23.7621C25.722 24.1514 25.722 24.8095 26.1745 25.1988C26.3521 25.3515 26.6263 25.4766 26.7839 25.4766H27.0703V34.6758V43.875H24.7852H22.5V34.6758V25.4766H22.7421C23.666 25.4766 24.1386 24.3831 23.479 23.7717L23.1689 23.4844H19.6065H16.044L15.7564 23.7721C15.1274 24.401 15.6066 25.4766 16.5157 25.4766H16.7578V34.6758V43.875H14.4727H12.1875V34.6758V25.4766H12.4739C12.6315 25.4766 12.9057 25.3515 13.0833 25.1988C13.5359 24.8095 13.5359 24.1514 13.0833 23.7621L12.7603 23.4844H9.25781H5.75531L5.43234 23.7621ZM8.32031 34.6758V43.875H9.25781H10.1953V34.6758V25.4766H9.25781H8.32031V34.6758ZM18.75 34.6758V43.875H19.6289H20.5078V34.6758V25.4766H19.6289H18.75V34.6758ZM29.0625 34.6758V43.875H30H30.9375V34.6758V25.4766H30H29.0625V34.6758ZM39.4922 34.6758V43.875H40.3711H41.25V34.6758V25.4766H40.3711H39.4922V34.6758ZM49.8047 34.6758V43.875H50.7422H51.6797V34.6758V25.4766H50.7422H49.8047V34.6758ZM4.57031 46.7461V47.625H7.85531C11.5114 47.625 11.7986 47.672 12.0643 48.3137C12.1883 48.6131 12.1883 48.7462 12.0643 49.0457C11.7878 49.7135 11.621 49.7344 6.56625 49.7344H1.99219V50.6133V51.4922H30H58.0078V50.6145V49.7368L36.3375 49.7062L14.6673 49.6758L14.3648 49.3917C13.9482 49.0002 13.9482 48.3592 14.3648 47.9677L14.6673 47.6836L35.0484 47.653L55.4297 47.6224V46.7448V45.8672H30H4.57031V46.7461ZM0.0494531 50.5547C0.0494531 51.876 0.0665625 52.4164 0.0874219 51.7559C0.108281 51.0953 0.108281 50.0141 0.0874219 49.3535C0.0665625 48.6929 0.0494531 49.2334 0.0494531 50.5547Z" fill="#0B2545"/>
</svg>
