<svg width="52" height="60" viewBox="0 0 52 60" fill="none" xmlns="http://www.w3.org/2000/svg">
<path fill-rule="evenodd" clip-rule="evenodd" d="M7.92813 0.23918C4.53051 1.07461 1.85922 3.77367 1.03211 7.20703C0.813205 8.11582 0.806291 8.83043 0.80547 30.5379C0.80465 52.2777 0.811212 52.957 1.03082 53.8155C1.77789 56.7366 4.06774 59.0266 6.98817 59.7736C7.84504 59.9927 8.48008 60 26.848 60H45.8227L46.1652 59.6575L46.5078 59.3149V47.2942V35.2734H48.3886C50.376 35.2734 50.8152 35.1786 51.0746 34.6939C51.1556 34.5428 51.1953 29.6743 51.1953 19.9206V5.37258L50.8527 5.03004L50.5102 4.6875H48.509H46.5078V2.68629V0.685078L46.1652 0.342539L45.8227 0L27.3273 0.0084375C9.58082 0.0166406 8.79543 0.0260156 7.92813 0.23918ZM9.29805 2.45953C7.71824 2.6918 6.36883 3.3641 5.26949 4.46684C4.14133 5.59852 3.50395 6.88934 3.26805 8.5207C3.1968 9.01395 3.15215 16.2805 3.15074 27.6369L3.1484 45.9574L3.6625 45.508C5.15899 44.1998 7.19699 43.4926 9.50582 43.4802L10.1797 43.4766V22.9102C10.1797 6.52734 10.1499 2.34668 10.0332 2.3584C9.95266 2.36637 9.62172 2.41195 9.29805 2.45953ZM12.5234 22.9102V43.4766H28.3437H44.164V22.9102V2.34375H28.3437H12.5234V22.9102ZM46.5078 9.375V11.7188H47.6797H48.8515V9.375V7.03125H47.6797H46.5078V9.375ZM15.5228 7.79613C14.8536 8.14512 14.8749 7.95621 14.8709 13.5735L14.8672 18.768L15.2097 19.1106L15.5522 19.4531H21.1195H26.6866L29.4159 20.625C31.0689 21.3348 32.3003 21.7969 32.5386 21.7969C32.8172 21.7969 33.032 21.6969 33.2746 21.4543L33.6172 21.1118V14.7381C33.6172 8.42918 33.6147 8.3618 33.3715 8.10082C33.2364 7.95586 32.9957 7.7877 32.8366 7.72723C32.6661 7.6623 29.122 7.61754 24.2052 7.61789C16.982 7.61848 15.8175 7.6425 15.5228 7.79613ZM17.2109 13.5305V16.9828L22.2793 17.0168L27.3476 17.0508L29.164 17.8534C30.163 18.2948 31.0464 18.6827 31.1269 18.7155C31.2426 18.7625 31.2734 17.859 31.2734 14.4266V10.0781H24.2422H17.2109V13.5305ZM20.3032 12.4172C19.6899 12.6709 19.3607 13.5983 19.6754 14.1861C19.9666 14.7305 20.2435 14.7656 24.2422 14.7656C28.2408 14.7656 28.5177 14.7305 28.8089 14.1861C29.0426 13.7497 28.9509 13.1524 28.5878 12.746L28.246 12.3633L24.3984 12.339C22.2822 12.3257 20.4394 12.3608 20.3032 12.4172ZM46.5078 16.4648V18.75H47.6797H48.8515V16.4648V14.1797H47.6797H46.5078V16.4648ZM46.5078 23.4961V25.7812H47.6797H48.8515V23.4961V21.2109H47.6797H46.5078V23.4961ZM23.4128 24.4832L23.0703 24.8257V31.1719V37.518L23.4128 37.8606C23.9629 38.4107 24.2835 38.343 27.3476 37.0312L30.0849 35.8594H35.61H41.1352L41.4777 35.5168L41.8203 35.1743V30V24.8257L41.4777 24.4832L41.1352 24.1406H32.4453H23.7554L23.4128 24.4832ZM25.414 30.8203C25.414 33.2051 25.4438 35.1562 25.4802 35.1562C25.5167 35.1562 26.4098 34.7871 27.4648 34.3359L29.3832 33.5156H34.4298H39.4765V30V26.4844H32.4453H25.414V30.8203ZM46.5078 30.5273V32.8125H47.6797H48.8515V30.5273V28.2422H47.6797H46.5078V30.5273ZM28.1003 29.1707C27.8317 29.4394 27.7578 29.6182 27.7578 30C27.7578 30.3818 27.8317 30.5606 28.1003 30.8293L28.4429 31.1719H32.4453H36.4477L36.7902 30.8293C37.0588 30.5606 37.1328 30.3818 37.1328 30C37.1328 29.6182 37.0588 29.4394 36.7902 29.1707L36.4477 28.8281H32.4453H28.4429L28.1003 29.1707ZM7.69317 46.1195C5.0602 46.7578 3.24871 49.0331 3.23641 51.7177C3.22434 54.3546 4.80789 56.5257 7.36715 57.381C7.97981 57.5857 8.90477 57.598 26.0879 57.6292L44.164 57.662V56.4872V55.3125H26.2552C5.84078 55.3125 7.6825 55.4104 6.53629 54.2653C5.70133 53.4313 5.43906 52.7237 5.51781 51.5181C5.60805 50.1364 6.30403 49.1334 7.59145 48.5297L8.24606 48.2227L26.205 48.1908L44.164 48.159V47.0482V45.9375L26.2636 45.9472C11.4299 45.9553 8.2484 45.9848 7.69317 46.1195ZM8.59762 50.7357C7.96106 50.9964 7.71742 51.8299 8.10496 52.4214C8.21746 52.593 8.49203 52.7754 8.74305 52.8451C9.04 52.9276 14.8832 52.9677 26.6738 52.968L44.164 52.9688V51.7969V50.625L26.498 50.6324C16.7818 50.6365 8.72653 50.683 8.59762 50.7357Z" fill="#0B2545"/>
</svg>
