<svg width="60" height="60" viewBox="0 0 60 52" fill="none" xmlns="http://www.w3.org/2000/svg">
<path fill-rule="evenodd" clip-rule="evenodd" d="M14.9506 0.348022C13.6352 0.800366 12.7603 1.59841 12.143 2.90857C11.7999 3.63665 11.7793 3.76357 11.7376 5.39541L11.6936 7.11501L8.80577 7.15322L5.91792 7.19142L5.15069 7.55505C3.84839 8.17216 3.01612 9.08212 2.57104 10.3758C2.35085 11.0161 2.3437 11.4907 2.3437 25.5497V40.0625H1.63472C0.840654 40.0625 0.356904 40.2592 0.136123 40.6717C0.0228022 40.8834 -0.00403374 41.8381 0.0230366 44.6953L0.0585444 48.4414L0.374482 49.1156C0.81499 50.0556 1.74276 50.9983 2.68237 51.4609L3.45206 51.8399H29.9975H56.5429L57.2171 51.5239C58.1212 51.1002 59.0934 50.1595 59.5299 49.2858C59.724 48.8975 59.8828 48.4858 59.8828 48.371C59.8828 48.2563 59.9355 48.1297 60 48.0899C60.074 48.044 60.1171 46.6605 60.1171 44.326C60.1171 41.8776 60.0774 40.6592 59.9991 40.7075C59.9342 40.7477 59.8488 40.6961 59.8092 40.5929C59.6872 40.275 59.1087 40.0625 58.3652 40.0625H57.6562V25.5497C57.6562 11.4907 57.6491 11.0161 57.4289 10.3758C56.9838 9.08212 56.1515 8.17216 54.8492 7.55505L54.082 7.19142L51.1941 7.15322L48.3063 7.11501L48.2623 5.39541C48.2206 3.76357 48.2 3.63665 47.8569 2.90857C47.2341 1.58658 46.3577 0.793334 45.0233 0.343803C44.3117 0.104155 44.1541 0.101577 29.9744 0.105444C15.8698 0.109311 15.6336 0.113178 14.9506 0.348022ZM15.2156 2.90083C14.861 3.1256 14.5979 3.41306 14.4309 3.75806C14.1971 4.24099 14.1796 4.45837 14.1796 6.87689V9.47658H30H45.8203V6.87689C45.8203 4.45837 45.8028 4.24099 45.569 3.75806C45.402 3.41306 45.1389 3.1256 44.7843 2.90083L44.2509 2.56251H30H15.749L15.2156 2.90083ZM16.888 5.08908C16.1922 5.67454 16.3435 6.73732 17.1719 7.08349C17.7274 7.31552 18.8339 7.29572 19.3342 7.0447C20.1311 6.64509 20.268 5.81494 19.6406 5.18751C19.2498 4.79669 19.223 4.78908 18.2433 4.78908C17.3426 4.78908 17.2095 4.81849 16.888 5.08908ZM22.8172 5.02533C22.0761 5.60833 22.2017 6.73685 23.0471 7.09005C23.3535 7.21814 23.7462 7.26009 24.3526 7.22939C25.1575 7.18872 25.244 7.15849 25.559 6.80587C25.9272 6.39372 25.9925 5.94396 25.7583 5.43033C25.5437 4.959 25.0896 4.78908 24.0451 4.78908C23.2925 4.78908 23.0608 4.83361 22.8172 5.02533ZM5.96562 9.86658C5.62647 10.0456 5.32847 10.3342 5.09761 10.7069L4.74604 11.2745L4.71405 25.6685L4.68206 40.0625H5.85663H7.0312V26.3535V12.6444L7.37292 12.2617L7.71452 11.8789L9.71667 11.8419L11.7187 11.8049V10.6993V9.59376H9.10038C6.5853 9.59376 6.46179 9.60455 5.96562 9.86658ZM48.2812 10.6993V11.8049L50.2832 11.8419L52.2854 11.8789L52.627 12.2617L52.9687 12.6444V26.3535V40.0625H54.1433H55.3178L55.2859 25.6685L55.2539 11.2745L54.9023 10.7069C54.6714 10.3342 54.3734 10.0456 54.0343 9.86658C53.5381 9.60455 53.4146 9.59376 50.8995 9.59376H48.2812V10.6993ZM14.1822 22.7481C14.1847 33.0078 14.1958 33.5825 14.4011 34.0274C14.6629 34.5947 15.0339 34.9517 15.6131 35.1936C15.9966 35.3539 17.6714 35.375 30 35.375C42.3285 35.375 44.0033 35.3539 44.3868 35.1936C44.966 34.9517 45.337 34.5947 45.5988 34.0274C45.8041 33.5825 45.8152 33.0078 45.8177 22.7481L45.8203 11.9375H30H14.1796L14.1822 22.7481ZM23.708 14.2779C23.5668 14.3373 22.5805 14.9679 21.516 15.6794C19.756 16.8559 19.5684 17.0142 19.4444 17.428C19.2142 18.1964 19.3989 18.4039 21.6762 19.9356C23.7823 21.3519 24.042 21.4592 24.6712 21.1725C25.2541 20.9069 25.4988 19.9902 25.1281 19.4608C25.0267 19.3161 24.473 18.8811 23.8976 18.4943C23.3223 18.1074 22.8515 17.7727 22.8515 17.7507C22.8515 17.7287 23.3449 17.3853 23.948 16.9877C25.0634 16.2521 25.3125 15.95 25.3125 15.3323C25.3125 14.6242 24.3653 14.0018 23.708 14.2779ZM30.8203 14.2468C30.3731 14.4103 30.0046 14.9785 28.8727 17.2497C27.4884 20.0277 27.4062 20.3774 27.9987 20.97C28.3952 21.3664 29.0678 21.4364 29.5094 21.127C29.9246 20.8363 32.3437 15.9131 32.3437 15.359C32.3437 14.5849 31.5269 13.9885 30.8203 14.2468ZM35.436 14.2745C35.066 14.4307 34.6875 14.9726 34.6875 15.3463C34.6875 15.9491 34.9429 16.2563 36.0519 16.9877C36.655 17.3853 37.1484 17.7287 37.1484 17.7507C37.1484 17.7727 36.6777 18.1074 36.1023 18.4943C35.5269 18.8811 34.9732 19.3161 34.8718 19.4608C34.5011 19.9902 34.7458 20.9069 35.3287 21.1725C35.9579 21.4592 36.2176 21.3519 38.3237 19.9356C40.6021 18.4032 40.7858 18.1967 40.5549 17.4262C40.4299 17.0088 40.2455 16.8547 38.4024 15.6275C36.4034 14.2966 35.9134 14.0731 35.436 14.2745ZM9.49214 27.1719V40.0625H30H50.5078V27.1719V14.2813H49.3945H48.2812V23.9246C48.2812 34.3861 48.2838 34.3395 47.6349 35.447C46.9826 36.5602 45.7541 37.4279 44.4376 37.7052C43.5577 37.8904 16.4353 37.8894 15.5623 37.7041C14.2707 37.4298 13.0012 36.5304 12.3575 35.4336C11.7172 34.3425 11.7187 34.3697 11.7187 23.9246V14.2813H10.6054H9.49214V27.1719ZM16.8352 26.3061C16.2781 26.8631 16.3136 27.6465 16.918 28.1361C17.1462 28.321 17.6177 28.3387 22.3625 28.3412L27.5571 28.3438L27.8996 28.0012C28.3819 27.5189 28.3819 26.8249 27.8996 26.3426L27.5571 26H22.3491H17.1413L16.8352 26.3061ZM30.9284 26.3426C30.6598 26.6113 30.5859 26.7901 30.5859 27.1719C30.5859 27.5537 30.6598 27.7325 30.9284 28.0012L31.271 28.3438H34.7151H38.1593L38.5007 27.9873C38.9981 27.4681 38.9826 26.8045 38.4622 26.3396L38.0821 26H34.6766H31.271L30.9284 26.3426ZM16.8727 31.0098C16.1347 31.6752 16.3858 32.7733 17.3344 33.0288C17.6537 33.1147 20.122 33.1448 25.0252 33.1227L32.2459 33.0899L32.5878 32.7071C33.0652 32.1727 33.065 31.5079 32.5871 31.0301L32.2446 30.6875H24.7374H17.2303L16.8727 31.0098ZM35.8722 30.8511C35.3029 31.1666 35.0969 32.024 35.4645 32.5488C35.8433 33.0895 36.225 33.1484 39.3419 33.1477C41.0186 33.1474 42.4344 33.0949 42.6916 33.0234C43.6153 32.7669 43.8537 31.6647 43.1272 31.0098L42.7696 30.6875L39.461 30.6916C36.94 30.6948 36.0856 30.7327 35.8722 30.8511ZM0.0522163 44.457C0.0523335 46.5195 0.068271 47.3468 0.0877241 46.2954C0.10706 45.244 0.10706 43.5565 0.0876069 42.5454C0.0680366 41.5343 0.0522163 42.3945 0.0522163 44.457ZM2.3444 44.8965C2.34476 46.2463 2.40019 47.4717 2.47308 47.7383C2.64604 48.3716 3.08269 48.9225 3.63487 49.2042C4.08733 49.4351 4.36343 49.4375 30 49.4375C55.6365 49.4375 55.9126 49.4351 56.365 49.2042C56.9172 48.9225 57.3539 48.3716 57.5268 47.7383C57.5997 47.4717 57.6551 46.2463 57.6555 44.8965L57.6562 42.5235H30H2.3437L2.3444 44.8965Z" fill="#0B2545"/>
</svg>
