<svg width="16" height="24" viewBox="0 0 16 24" fill="none" xmlns="http://www.w3.org/2000/svg">
<path d="M9.01344 12.754L9.01345 12.754L9.01808 12.7525L13.1526 11.4272L14.0772 11.1308L13.299 10.5503L1.29895 1.59922L0.5 1.00326V2V17.8775V18.9705L1.32697 18.2557L4.89788 15.1692C4.95895 15.1193 5.00836 15.1074 5.04805 15.1074L5.06491 15.1074L5.07643 15.1075C5.07691 15.1075 5.07736 15.1075 5.07779 15.1076L5.07926 15.1079L5.09072 15.1103C5.15553 15.1237 5.224 15.1666 5.27722 15.2649L5.27721 15.2649L5.27869 15.2676L9.10762 22.2407L9.37044 22.7193L9.82413 22.4154L12.3498 20.7238L12.7304 20.4689L12.5098 20.0675L8.84457 13.3983C8.78293 13.2798 8.76728 13.1255 8.81317 12.9862C8.86506 12.8434 8.95958 12.7707 9.01344 12.754Z" fill="white" stroke="#333333"/>
</svg>
