<svg width="60" height="58" viewBox="0 0 60 58" fill="none" xmlns="http://www.w3.org/2000/svg">
<path fill-rule="evenodd" clip-rule="evenodd" d="M22.4774 0.410475C19.168 1.22434 16.4579 3.87501 15.5654 7.17102C15.2448 8.35555 15.2077 10.668 15.4925 11.7148C15.9649 13.4506 16.5943 14.6523 17.6679 15.8679L18.285 16.5666L15.3559 16.6017L12.4268 16.6367L12.1021 16.9616L11.7773 17.2864L11.745 23.4362L11.7127 29.5859H6.19887H0.685078L0.342539 29.9285L0 30.271L0.00257812 37.2234C0.00503906 43.6337 0.0209766 44.1952 0.207656 44.4257C0.616758 44.9307 0.698086 44.9375 6.32039 44.9375H11.7188V50.9218C11.7188 55.0984 11.7582 56.9833 11.8496 57.162C11.9216 57.3028 12.093 57.509 12.2305 57.6205C12.4655 57.8108 13.8872 57.8231 35.8977 57.8256L59.3149 57.8281L59.638 57.505L59.9611 57.182L60.0411 47.1178C60.1399 34.6898 60.0343 17.5659 59.8567 17.1986C59.5901 16.6476 59.1793 16.5781 56.1903 16.5781H53.4123L54.0565 15.8823C55.7711 14.0304 56.5739 11.7739 56.4523 9.14891C56.3791 7.57098 56.1752 6.76883 55.4958 5.38672C54.3476 3.0513 52.332 1.34657 49.7461 0.523912C48.6302 0.168951 46.3518 0.0739122 45.1386 0.331842C41.9036 1.0195 39.2287 3.39512 38.148 6.54032L37.7794 7.61329L37.2002 7.47805C36.2727 7.26149 35.3225 7.29184 34.1059 7.57696C34.0092 7.59958 33.8967 7.41489 33.8068 7.08594C32.9112 3.80903 30.2871 1.27005 26.9051 0.408131C25.6854 0.0972325 23.7471 0.0982873 22.4774 0.410475ZM23.736 2.6436C22.2318 2.86766 20.8931 3.54055 19.7945 4.62489C18.4617 5.94008 17.6932 7.76118 17.6971 9.59493C17.7032 12.5524 19.67 15.2695 22.5 16.2302C23.4487 16.5522 25.046 16.6598 26.0409 16.4688C27.767 16.1373 29.5859 14.899 30.5862 13.3743C31.8921 11.384 32.0593 8.59286 30.9977 6.50505C29.6201 3.79579 26.6398 2.21094 23.736 2.6436ZM46.1133 2.63751C43.8527 2.93387 41.79 4.44501 40.792 6.53575C40.2489 7.67376 40.0781 8.41719 40.0781 9.6452C40.0781 12.7982 42.2992 15.6151 45.4055 16.4013C47.6895 16.9795 50.2677 16.2477 51.969 14.5385C53.3761 13.125 54.0234 11.5705 54.0234 9.60547C54.0234 7.732 53.4593 6.24887 52.2407 4.91903C50.647 3.17985 48.3889 2.33903 46.1133 2.63751ZM23.2282 5.08098C22.0073 5.50274 21.038 6.35704 20.455 7.52481C19.0622 10.3146 20.8002 13.6686 23.938 14.2468C25.9713 14.6215 28.0602 13.5117 28.9813 11.5673C29.329 10.8334 29.3554 10.69 29.3531 9.54688C29.351 8.46547 29.3132 8.23579 29.0411 7.65102C28.031 5.48118 25.4164 4.32512 23.2282 5.08098ZM45.7617 5.02368C43.9654 5.59333 42.741 6.97837 42.3966 8.83063C42.0177 10.8676 43.1619 12.9713 45.1488 13.8908C45.9154 14.2455 46.0966 14.2825 47.0508 14.2786C47.7479 14.2756 48.2843 14.2067 48.6328 14.0752C51.2371 13.0931 52.5049 10.0912 51.354 7.63192C50.7532 6.3479 49.8627 5.54751 48.5389 5.10161C47.7179 4.82505 46.4963 4.79083 45.7617 5.02368ZM23.6999 7.51403C23.1817 7.7695 22.6568 8.39141 22.4903 8.94735C21.9557 10.7314 23.8121 12.4227 25.5213 11.7086C26.0341 11.4944 26.5529 11.0278 26.7962 10.562C27.1573 9.87044 26.9598 8.63962 26.3823 7.98172C25.8343 7.35723 24.4925 7.12333 23.6999 7.51403ZM46.1133 7.48051C45.6681 7.68782 45.0519 8.33422 44.89 8.76348C44.703 9.2593 44.7444 10.0172 44.9871 10.543C45.723 12.1375 47.7863 12.3368 48.9116 10.9221C49.6602 9.98106 49.3903 8.3729 48.3705 7.69813C47.8078 7.32571 46.6793 7.21696 46.1133 7.48051ZM34.7522 9.98434L34.1725 10.1914L34.0328 11.0302C33.7411 12.7825 33.0875 14.2142 31.9302 15.6362L31.1634 16.5781H35.9231H40.6827L39.9677 15.7871C38.8301 14.5284 37.965 12.6275 37.6733 10.7455C37.6104 10.3399 37.5257 10.2088 37.2265 10.054C36.6756 9.76907 35.4513 9.73462 34.7522 9.98434ZM14.1797 24.3125V29.5859H15.293H16.4062V24.3125V19.0391H15.293H14.1797V24.3125ZM18.8672 24.3125V29.5859H19.9805H21.0938V24.3125V19.0391H19.9805H18.8672V24.3125ZM23.5547 24.3125V29.5859H35.8594H48.1641V24.3125V19.0391H35.8594H23.5547V24.3125ZM50.625 24.3125V29.5859H51.7383H52.8516V24.3125V19.0391H51.7383H50.625V24.3125ZM55.3125 24.3125V29.5859H56.4844H57.6562V24.3125V19.0391H56.4844H55.3125V24.3125ZM0.0549609 37.2617C0.0549609 41.1289 0.0698437 42.694 0.0878906 40.7396C0.105938 38.7853 0.10582 35.6212 0.0877734 33.7084C0.0697266 31.7955 0.0549609 33.3945 0.0549609 37.2617ZM59.6266 31.5921L59.3119 31.9297H53.7966H48.2812V37.2031V42.4766H53.6796C59.3019 42.4766 59.3832 42.4834 59.7923 42.9883C59.9848 43.226 59.995 42.9415 59.9974 37.2324C59.9988 33.9293 59.9868 31.2328 59.9707 31.2405C59.9546 31.2481 59.7997 31.4063 59.6266 31.5921ZM2.34375 37.2031V42.4766H24.082H45.8203V37.2031V31.9297H30H14.1797L14.1792 35.5918C14.1789 38.9679 14.1616 39.2822 13.9588 39.6148C13.7032 40.0339 13.1351 40.3073 12.7308 40.2058C12.5759 40.167 11.7621 39.6831 10.9225 39.1305L9.39586 38.1257L7.84945 39.1559C6.5502 40.0214 6.22805 40.1861 5.83477 40.1861C5.45473 40.1861 5.30273 40.1145 5.02711 39.806L4.6875 39.4259V35.6778V31.9297H3.51562H2.34375V37.2031ZM7.14844 34.2734C7.14844 35.5625 7.17316 36.6172 7.2034 36.6172C7.23363 36.6172 7.6623 36.3535 8.1559 36.0313C9.32988 35.265 9.52465 35.2694 10.753 36.0918L11.7188 36.7385V34.334V31.9297H9.43359H7.14844V34.2734ZM14.1797 50.2109V55.4844H15.293H16.4062V50.2109V44.9375H15.293H14.1797V50.2109ZM18.8672 50.2109V55.4844H19.9805H21.0938V50.2109V44.9375H19.9805H18.8672V50.2109ZM23.5547 50.2109V55.4844H35.8594H48.1641V50.2109V44.9375H35.8594H23.5547V50.2109ZM50.625 50.2109V55.4844H51.7383H52.8516V50.2109V44.9375H51.7383H50.625V50.2109ZM55.3125 50.2109V55.4844H56.4844H57.6562V50.2109V44.9375H56.4844H55.3125V50.2109Z" fill="#0B2545"/>
</svg>
