<svg width="60" height="60" viewBox="0 0 60 60" fill="none" xmlns="http://www.w3.org/2000/svg">
<path fill-rule="evenodd" clip-rule="evenodd" d="M3.3398 0.163822C2.02753 0.581361 0.998745 1.47316 0.419722 2.69495L0.0585498 3.45702V30V56.543L0.420308 57.3047C0.879917 58.2725 1.71605 59.1076 2.69527 59.5766L3.45699 59.9414H30H56.5429L57.305 59.5802C57.7334 59.3771 58.3183 58.9678 58.641 58.6451C59.1908 58.0955 59.8825 56.8791 59.8826 56.462C59.8828 56.353 59.9355 56.2312 60 56.1914C60.0775 56.1435 60.1171 47.2426 60.1171 29.869C60.1171 12.3988 60.078 3.64324 60 3.6914C59.9355 3.73124 59.8828 3.66843 59.8826 3.55183C59.8825 3.12245 59.1986 1.91249 58.641 1.35492C58.3183 1.03218 57.7334 0.622845 57.305 0.419759L56.5429 0.0585871L30.1757 0.0365559C9.10496 0.019095 3.71445 0.0446418 3.3398 0.163822ZM3.99781 2.51964C3.29667 2.73831 2.72808 3.31863 2.51632 4.03171C2.2557 4.90921 2.2557 55.0908 2.51632 55.9683C2.73347 56.6996 3.30019 57.2628 4.04433 57.4868C4.90109 57.7446 55.0996 57.7417 55.9682 57.4836C56.6996 57.2665 57.2628 56.6998 57.4867 55.9556C57.7419 55.1077 57.7419 4.89234 57.4867 4.04437C57.2628 3.30023 56.6996 2.73351 55.9682 2.51636C55.1274 2.26663 4.7989 2.26992 3.99781 2.51964ZM0.0574951 30C0.0574951 44.4697 0.0712061 50.3891 0.0878467 43.1543C0.104487 35.9194 0.104487 24.0805 0.0878467 16.8457C0.0712061 9.61078 0.0574951 15.5303 0.0574951 30ZM5.02999 5.03003L4.68746 5.37257V30V54.6274L5.02999 54.97L5.37253 55.3125H30H54.6274L54.9699 54.97L55.3125 54.6274V30V5.37257L54.9699 5.03003L54.6274 4.68749H30H5.37253L5.02999 5.03003ZM7.14839 17.9883V28.8281H17.9882H28.8281V17.9883V7.14843H17.9882H7.14839V17.9883ZM31.1718 17.9883V28.8281H42.0117H52.8515V17.9883V7.14843H42.0117H31.1718V17.9883ZM14.9736 9.55769C14.7979 9.65296 14.6002 9.83203 14.5341 9.95542C14.4648 10.085 14.414 11.075 14.414 12.2969V14.4141H12.2969C11.069 14.4141 10.0851 14.4647 9.95445 14.5348C9.43976 14.8102 9.37496 15.1884 9.37496 17.9162C9.37496 19.3332 9.42535 20.6251 9.48687 20.7871C9.72453 21.412 10.057 21.5005 12.3284 21.5427L14.414 21.5815V23.6904V25.7993L14.7566 26.1418L15.0991 26.4844H17.9048C20.5539 26.4844 20.7275 26.471 21.0153 26.2447C21.4582 25.8962 21.561 25.3514 21.5618 23.3496L21.5625 21.5625H23.4412C25.467 21.5625 25.9434 21.4623 26.2932 20.9628C26.4569 20.7292 26.4843 20.2894 26.4843 17.8946V15.0991L26.1418 14.7566L25.7993 14.4141H23.6903H21.5814L21.5427 12.3285C21.5005 10.057 21.412 9.72456 20.787 9.48691C20.6251 9.42539 19.3227 9.3771 17.8927 9.37968C15.8273 9.38343 15.2273 9.41999 14.9736 9.55769ZM38.0273 9.97253C37.8984 10.0459 36.9624 10.9296 35.9473 11.9362C34.0408 13.8269 33.8428 14.1239 34.0466 14.7847C34.093 14.9353 34.7668 15.7037 35.544 16.4923L36.9569 17.9259L35.5459 19.3651C34.7697 20.1567 34.0959 20.9268 34.0484 21.0764C33.8397 21.7339 34.0388 22.0301 36.0059 23.9889C37.9348 25.9096 38.2396 26.1202 38.8648 25.9631C39.0377 25.9198 39.8169 25.256 40.6245 24.4642L42.074 23.043L43.5086 24.4614C44.9648 25.901 45.3023 26.1118 45.9082 25.9605C46.2737 25.8693 49.7176 22.5257 50.0001 21.9878C50.335 21.3503 50.1554 21.0306 48.5776 19.4565L47.1165 17.9989L48.571 16.5176C50.0382 15.0233 50.249 14.6893 50.1026 14.0918C49.9959 13.6557 46.3442 10.0041 45.9082 9.8973C45.3087 9.75046 44.9759 9.96082 43.4866 11.4284L42.0117 12.8817L40.5418 11.4179C39.3489 10.23 38.9955 9.94324 38.6668 9.8966C38.444 9.86495 38.1562 9.89917 38.0273 9.97253ZM16.7578 13.9543V16.0727L16.4152 16.4153L16.0727 16.7578H13.9543H11.8359V17.9297V19.1016H13.9543H16.0727L16.4152 19.4441L16.7578 19.7866V21.905V24.0234H17.9296H19.1015V21.905V19.7866L19.4441 19.4441L19.7866 19.1016H21.905H24.0234V17.9297V16.7578H21.905H19.7866L19.4441 16.4153L19.1015 16.0727V13.9543V11.8359H17.9296H16.7578V13.9543ZM37.7059 13.5614L36.9185 14.3489L38.3716 15.8175C39.8467 17.3084 40.058 17.6436 39.9056 18.2515C39.858 18.441 39.2276 19.1767 38.3716 20.0419L36.9185 21.5105L37.704 22.296L38.4895 23.0815L39.9581 21.6284C41.4489 20.1532 41.7842 19.9419 42.3921 20.0944C42.5816 20.1419 43.3176 20.7727 44.1835 21.6293L45.6532 23.0836L46.4393 22.2914L47.2253 21.4992L45.7612 20.0386C44.2526 18.5337 44.0455 18.1956 44.2419 17.559C44.2883 17.4084 44.9641 16.638 45.7435 15.8471L47.1608 14.4091L46.3759 13.6241L45.5908 12.8392L44.1517 14.2618C43.3091 15.0949 42.5797 15.7179 42.3915 15.7651C41.7762 15.9194 41.4505 15.714 39.9595 14.2317L38.4934 12.774L37.7059 13.5614ZM7.14839 42.0117V52.8516H17.9882H28.8281V42.0117V31.1719H17.9882H7.14839V42.0117ZM31.1718 42.0117V52.8516H42.0117H52.8515V42.0117V31.1719H42.0117H31.1718V42.0117ZM20.8593 34.1687C20.6982 34.2786 19.947 34.9798 19.19 35.7268L17.8136 37.085L17.6152 36.7944C17.2646 36.2809 16.5972 35.7101 16.0551 35.4601C15.2527 35.0901 13.8496 35.1245 13.0664 35.5334C12.3128 35.9266 11.6817 36.5852 11.3504 37.3242C10.9866 38.1354 10.99 39.3231 11.3584 40.1618C11.6216 40.7611 12.6151 41.8359 12.9058 41.8359C12.9842 41.8359 12.3568 42.5393 11.5115 43.399C9.96089 44.9763 9.74949 45.3049 9.89726 45.9082C10.004 46.3443 13.6557 49.9959 14.0918 50.1027C14.695 50.2505 15.0236 50.0391 16.601 48.4884C17.4607 47.6432 18.164 47.0157 18.164 47.0941C18.164 47.3849 19.2389 48.3784 19.8382 48.6416C20.6769 49.0099 21.8646 49.0133 22.6757 48.6496C23.4123 48.3193 24.0709 47.6897 24.4707 46.9336C24.8826 46.1548 24.9131 44.7588 24.5361 43.9382C24.2851 43.3916 23.5639 42.5586 23.1453 42.3315C22.9313 42.2155 23.0353 42.079 24.3881 40.7012C25.2002 39.8742 25.9035 39.0746 25.9511 38.9245C26.1601 38.2662 25.9616 37.9705 23.9841 35.9959C22.2792 34.2933 22.02 34.0781 21.6112 34.0267C21.2943 33.9867 21.0616 34.0308 20.8593 34.1687ZM17.167 41.2509L12.8336 45.5855L13.6243 46.376L14.415 47.1667L18.7518 42.8297L23.0888 38.4927L22.2946 37.7046L21.5003 36.9164L17.167 41.2509ZM13.886 37.8811C13.6795 38.0586 13.5576 38.3058 13.5132 38.6371C13.4547 39.0735 13.4878 39.1699 13.8044 39.4866C14.2686 39.9506 14.8314 39.9704 15.3425 39.5403C15.6342 39.295 15.7031 39.1477 15.7031 38.7696C15.7031 37.8015 14.6035 37.2639 13.886 37.8811ZM34.263 38.6059C33.5362 38.9222 33.5156 39.0189 33.5156 42.1054V44.9009L33.8581 45.2434L34.2007 45.5859H42.0352C50.5944 45.5859 50.2035 45.6173 50.4979 44.9067C50.5959 44.67 50.6269 43.7654 50.6019 41.8672C50.5621 38.8417 50.5485 38.792 49.6992 38.556C49.4378 38.4834 46.4894 38.4403 41.9531 38.4428C36.0457 38.4459 34.5581 38.4775 34.263 38.6059ZM35.9765 42.0703V43.2422H42.0703H48.164V42.0703V40.8984H42.0703H35.9765V42.0703ZM20.4596 44.6575C20.0295 45.1685 20.0493 45.7314 20.5134 46.1955C20.83 46.5122 20.9265 46.5452 21.3629 46.4868C22.3497 46.3543 22.7268 45.326 22.0402 44.6394C21.5491 44.1483 20.8816 44.1559 20.4596 44.6575Z" fill="#EEF4ED"/>
</svg>
