<svg width="24" height="24"  viewBox="0 0 24 24" fill="none" xmlns="http://www.w3.org/2000/svg">
<path fill-rule="evenodd" clip-rule="evenodd" d="M1.33593 0.0655311C0.811026 0.232547 0.39951 0.589266 0.167901 1.07798L0.0234321 1.38281V12V22.6172L0.168135 22.9219C0.351979 23.309 0.686432 23.643 1.07812 23.8306L1.38281 23.9766H12H22.6172L22.922 23.8321C23.0934 23.7509 23.3273 23.5871 23.4564 23.458C23.6763 23.2382 23.953 22.7516 23.9531 22.5848C23.9531 22.5412 23.9742 22.4925 24 22.4766C24.031 22.4574 24.0469 18.897 24.0469 11.9476C24.0469 4.95952 24.0312 1.4573 24 1.47656C23.9742 1.4925 23.9531 1.46737 23.9531 1.42073C23.953 1.24898 23.6795 0.765 23.4564 0.541969C23.3273 0.412875 23.0934 0.24914 22.922 0.167906L22.6172 0.0234373L12.0703 0.0146248C3.64199 0.00764046 1.48579 0.0178592 1.33593 0.0655311ZM1.59914 1.00786C1.31868 1.09533 1.09124 1.32745 1.00654 1.61269C0.902292 1.96369 0.902292 22.0363 1.00654 22.3873C1.0934 22.6799 1.32009 22.9051 1.61774 22.9947C1.96045 23.0978 22.0399 23.0967 22.3873 22.9935C22.6799 22.9066 22.9051 22.6799 22.9947 22.3823C23.0968 22.0431 23.0968 1.95694 22.9947 1.61775C22.9051 1.32009 22.6799 1.09341 22.3873 1.00655C22.051 0.906656 1.91957 0.907969 1.59914 1.00786ZM0.0230103 12C0.0230103 17.7879 0.0284946 20.1556 0.0351509 17.2617C0.0418071 14.3678 0.0418071 9.6322 0.0351509 6.73828C0.0284946 3.84431 0.0230103 6.21211 0.0230103 12ZM2.01201 2.01202L1.87499 2.14903V12V21.851L2.01201 21.988L2.14903 22.125H12H21.851L21.988 21.988L22.125 21.851V12V2.14903L21.988 2.01202L21.851 1.875H12H2.14903L2.01201 2.01202ZM2.85937 7.19531V11.5313H7.19531H11.5312V7.19531V2.85938H7.19531H2.85937V7.19531ZM12.4687 7.19531V11.5313H16.8047H21.1406V7.19531V2.85938H16.8047H12.4687V7.19531ZM5.98945 3.82308C5.91918 3.86119 5.8401 3.93281 5.81367 3.98217C5.78592 4.03402 5.76562 4.43002 5.76562 4.91878V5.76563H4.91878C4.42762 5.76563 4.03406 5.78588 3.98179 5.81391C3.77592 5.92406 3.74999 6.07538 3.74999 7.16648C3.74999 7.7333 3.77015 8.25005 3.79476 8.31483C3.88982 8.56481 4.02281 8.6002 4.93139 8.61708L5.76562 8.63259V9.47616V10.3197L5.90264 10.4567L6.03965 10.5938H7.16193C8.22159 10.5938 8.29101 10.5884 8.40614 10.4979C8.58328 10.3585 8.62443 10.1406 8.62471 9.33984L8.62499 8.625H9.37649C10.1868 8.625 10.3774 8.58492 10.5173 8.38514C10.5828 8.29167 10.5937 8.11575 10.5937 7.15786V6.03966L10.4567 5.90264L10.3197 5.76563H9.47615H8.63259L8.61707 4.93139C8.6002 4.02281 8.56481 3.88983 8.31482 3.79477C8.25004 3.77016 7.72907 3.75084 7.1571 3.75188C6.33093 3.75338 6.09093 3.768 5.98945 3.82308ZM15.2109 3.98902C15.1594 4.01836 14.785 4.37184 14.3789 4.7745C13.6163 5.53078 13.5371 5.64956 13.6186 5.91389C13.6372 5.97413 13.9067 6.28148 14.2176 6.59691L14.7828 7.17038L14.2184 7.74605C13.9079 8.06269 13.6384 8.3707 13.6194 8.43056C13.5359 8.69358 13.6155 8.81203 14.4024 9.59555C15.1739 10.3638 15.2959 10.4481 15.5459 10.3853C15.6151 10.3679 15.9268 10.1024 16.2498 9.78567L16.8296 9.21722L17.4035 9.78455C17.9859 10.3604 18.1209 10.4447 18.3633 10.3842C18.5095 10.3477 19.887 9.01027 20.0001 8.79511C20.134 8.54011 20.0622 8.41224 19.431 7.78261L18.8466 7.19958L19.4284 6.60703C20.0153 6.00933 20.0996 5.87573 20.0411 5.63672C19.9984 5.4623 18.5377 4.00163 18.3633 3.95892C18.1235 3.90019 17.9904 3.98433 17.3947 4.57134L16.8047 5.15269L16.2167 4.56717C15.7396 4.092 15.5982 3.9773 15.4667 3.95864C15.3776 3.94598 15.2625 3.95967 15.2109 3.98902ZM6.70312 5.58174V6.42909L6.5661 6.56611L6.42909 6.70313H5.58173H4.73437V7.17188V7.64063H5.58173H6.42909L6.5661 7.77764L6.70312 7.91466V8.76202V9.60938H7.17187H7.64062V8.76202V7.91466L7.77764 7.77764L7.91465 7.64063H8.76201H9.60937V7.17188V6.70313H8.76201H7.91465L7.77764 6.56611L7.64062 6.42909V5.58174V4.73438H7.17187H6.70312V5.58174ZM15.0824 5.42456L14.7674 5.73956L15.3486 6.327C15.9387 6.92334 16.0232 7.05745 15.9622 7.30059C15.9432 7.37639 15.6911 7.67067 15.3486 8.01675L14.7674 8.60419L15.0816 8.91839L15.3958 9.23259L15.9832 8.65134C16.5796 8.06128 16.7137 7.97677 16.9568 8.03775C17.0326 8.05678 17.3271 8.30906 17.6734 8.65172L18.2613 9.23344L18.5757 8.91656L18.8902 8.59969L18.3045 8.01544C17.7011 7.41347 17.6182 7.27824 17.6968 7.02361C17.7153 6.96338 17.9857 6.65522 18.2974 6.33886L18.8643 5.76366L18.5504 5.44964L18.2363 5.13567L17.6607 5.70473C17.3236 6.03797 17.0319 6.28716 16.9566 6.30605C16.7105 6.36778 16.5802 6.28561 15.9838 5.69269L15.3974 5.10961L15.0824 5.42456ZM2.85937 16.8047V21.1406H7.19531H11.5312V16.8047V12.4688H7.19531H2.85937V16.8047ZM12.4687 16.8047V21.1406H16.8047H21.1406V16.8047V12.4688H16.8047H12.4687V16.8047ZM8.34374 13.6675C8.27929 13.7115 7.97882 13.9919 7.67601 14.2907L7.12546 14.834L7.0461 14.7178C6.90585 14.5124 6.6389 14.284 6.42206 14.184C6.1011 14.0361 5.53987 14.0498 5.22656 14.2133C4.92515 14.3707 4.67268 14.6341 4.54017 14.9297C4.39467 15.2542 4.39603 15.7292 4.54335 16.0647C4.64864 16.3044 5.04604 16.7344 5.16234 16.7344C5.1937 16.7344 4.94273 17.0157 4.60462 17.3596C3.98437 17.9905 3.89981 18.122 3.95892 18.3633C4.00162 18.5377 5.46229 19.9984 5.63671 20.0411C5.87803 20.1002 6.00946 20.0156 6.6404 19.3954C6.98428 19.0573 7.26562 18.8063 7.26562 18.8377C7.26562 18.954 7.69556 19.3514 7.93528 19.4566C8.27076 19.604 8.74584 19.6053 9.07031 19.4598C9.36492 19.3277 9.62835 19.0759 9.78829 18.7734C9.95306 18.4619 9.96524 17.9035 9.81445 17.5753C9.71404 17.3566 9.42557 17.0235 9.25814 16.9326C9.17254 16.8862 9.21412 16.8316 9.75525 16.2805C10.0801 15.9497 10.3614 15.6299 10.3805 15.5698C10.464 15.3065 10.3846 15.1882 9.59367 14.3984C8.91168 13.7173 8.80799 13.6313 8.6445 13.6107C8.51775 13.5947 8.42465 13.6123 8.34374 13.6675ZM6.86681 16.5004L5.13346 18.2342L5.44973 18.5504L5.766 18.8667L7.50074 17.1319L9.23554 15.3971L8.91787 15.0818L8.60015 14.7666L6.86681 16.5004ZM5.5544 15.1524C5.47181 15.2235 5.42306 15.3223 5.40529 15.4548C5.3819 15.6294 5.39512 15.668 5.52178 15.7946C5.70745 15.9803 5.93259 15.9882 6.13701 15.8161C6.25368 15.718 6.28124 15.6591 6.28124 15.5078C6.28124 15.1206 5.84142 14.9055 5.5544 15.1524ZM13.7052 15.4424C13.4145 15.5689 13.4062 15.6075 13.4062 16.8421V17.9603L13.5433 18.0974L13.6803 18.2344H16.8141C20.2378 18.2344 20.0814 18.2469 20.1992 17.9627C20.2384 17.868 20.2508 17.5062 20.2408 16.7469C20.2249 15.5367 20.2194 15.5168 19.8797 15.4224C19.7752 15.3934 18.5958 15.3761 16.7812 15.3771C14.4183 15.3784 13.8232 15.391 13.7052 15.4424ZM14.3906 16.8281V17.2969H16.8281H19.2656V16.8281V16.3594H16.8281H14.3906V16.8281ZM8.18385 17.863C8.01182 18.0674 8.01974 18.2925 8.20537 18.4782C8.33203 18.6049 8.3706 18.6181 8.54517 18.5947C8.9399 18.5417 9.09074 18.1304 8.8161 17.8558C8.61965 17.6593 8.35265 17.6624 8.18385 17.863Z" fill="#0B2545"/>
</svg>
