<svg width="54" height="60" viewBox="0 0 54 60" fill="none" xmlns="http://www.w3.org/2000/svg">
<path fill-rule="evenodd" clip-rule="evenodd" d="M25.2627 0.170977C23.6925 0.550899 21.6839 1.91156 20.3656 3.48832C18.9931 5.12988 17.407 7.96219 16.6141 10.1871C16.4402 10.675 16.262 11.1162 16.2179 11.1674C16.1738 11.2187 15.3781 11.1479 14.4498 11.0102C12.4756 10.7174 9.42173 10.6621 7.957 10.8928C3.69489 11.5638 0.979186 13.6897 0.210202 16.9569C0.0702803 17.5518 0.0374678 18.1106 0.0811787 19.1602C0.214187 22.3575 1.66837 25.393 5.13805 29.7159C5.36387 29.9973 5.36387 30.0027 5.13805 30.2841C1.66837 34.607 0.214187 37.6425 0.0811787 40.8398C0.0374678 41.8894 0.0702803 42.4482 0.210202 43.0431C0.420202 43.9352 0.950476 45.0845 1.43762 45.7031C1.71454 46.0546 1.747 46.172 1.66485 46.5234C1.40188 47.6487 1.92055 49.1078 2.90165 50.0027C4.40563 51.3749 6.63864 51.3141 8.09118 49.8615L8.70149 49.2513L10.6143 49.2478C11.7841 49.2456 13.1192 49.163 14.0507 49.035C16.4002 48.7123 16.1827 48.6512 16.5831 49.7461C17.0865 51.1231 18.3458 53.6609 19.0721 54.7618C20.4737 56.8866 21.9757 58.3322 23.6601 59.1775C24.8653 59.7823 25.7493 60 27 60C29.9684 60 32.6345 58.2384 34.9278 54.7618C35.6541 53.6609 36.9134 51.1231 37.4169 49.7461C37.8166 48.6529 37.603 48.7145 39.911 49.0265C41.6101 49.2561 44.633 49.2902 46.0327 49.0956C49.5354 48.6084 51.9534 47.0991 53.2056 44.6183C53.8162 43.4087 53.9878 42.4993 53.9188 40.8398C53.7857 37.6425 52.3316 34.607 48.8619 30.2841C48.6361 30.0027 48.6361 29.9973 48.8619 29.7159C52.3316 25.393 53.7857 22.3575 53.9188 19.1602C53.9625 18.1106 53.9296 17.5518 53.7897 16.9569C52.6285 12.0233 47.0721 9.81399 39.0277 11.0875C38.392 11.188 37.8315 11.2262 37.7822 11.1723C37.7327 11.1184 37.6264 10.8633 37.5458 10.6055C37.4652 10.3477 37.1381 9.54551 36.8189 8.82293L36.2387 7.50902L36.629 6.7152C36.98 6.00176 37.0193 5.82047 37.0167 4.92363C37.0143 4.06805 36.9683 3.83859 36.6944 3.31441C35.8112 1.62422 33.8673 0.776954 32.1565 1.33641C31.5784 1.52555 31.5488 1.52414 31.2208 1.29059C30.6984 0.918516 29.4774 0.38004 28.7039 0.180352C27.8661 -0.0359761 26.1371 -0.0406636 25.2627 0.170977ZM26.1938 2.47582C23.4909 2.92477 20.7969 6.05883 18.9329 10.9229L18.5866 11.8263L19.2484 12.0121C21.148 12.5452 22.8231 13.1139 24.8027 13.8982L27 14.7686L29.1972 13.8982C31.1558 13.1224 33.5263 12.3203 34.9353 11.9566C35.3836 11.8409 35.4194 11.805 35.3227 11.5689C35.264 11.4257 34.9763 10.7285 34.6835 10.0195L34.1509 8.73047L33.2414 8.72695C32.1329 8.72262 31.4838 8.46047 30.6492 7.67977C29.6497 6.74484 29.2279 5.20652 29.6226 3.93504C29.7211 3.61793 29.7709 3.30879 29.7334 3.2482C29.6131 3.05356 28.4623 2.60039 27.7575 2.47008C27.0014 2.33027 27.0717 2.33004 26.1938 2.47582ZM32.3203 4.03125C31.3909 4.96066 32.1174 6.42281 33.4415 6.28746C34.1745 6.21258 34.6172 5.71535 34.6172 4.96688C34.6172 4.51219 34.556 4.36852 34.2187 4.03125C33.8786 3.69117 33.7397 3.63281 33.2695 3.63281C32.7993 3.63281 32.6604 3.69117 32.3203 4.03125ZM8.60833 13.2565C4.35688 13.749 2.08098 16.1115 2.51598 19.5807C2.8004 21.8487 3.9861 24.2718 6.22403 27.1582C6.6363 27.6899 7.00473 28.125 7.0427 28.125C7.08067 28.125 7.53922 27.7153 8.06176 27.2147C9.29704 26.0309 11.1709 24.4286 12.661 23.2819L13.8493 22.3675L13.9303 21.5841C14.0792 20.1411 14.6949 16.7147 15.085 15.1567L15.4713 13.6143L14.5266 13.4755C12.144 13.1256 10.3201 13.0581 8.60833 13.2565ZM41.2968 13.2366C40.8134 13.2892 39.9902 13.3961 39.4674 13.4741L38.5169 13.6159L38.7396 14.4545C39.1214 15.8932 39.7537 19.1719 39.9655 20.8113L40.1682 22.3811L41.3478 23.2887C42.8298 24.4291 44.7052 26.0331 45.9382 27.2147C46.4607 27.7153 46.9193 28.125 46.9572 28.125C47.0737 28.125 48.4941 26.2506 49.1988 25.1671C50.1021 23.7782 50.9757 21.9131 51.272 20.7413C51.4653 19.977 51.508 19.509 51.4742 18.5243C51.4357 17.3978 51.3942 17.2003 51.0488 16.4988C50.3278 15.034 48.7373 13.9498 46.6113 13.4735C45.4248 13.2079 42.6829 13.0855 41.2968 13.2366ZM17.757 14.5605C17.4533 15.5207 16.8171 18.5401 16.6207 19.9536L16.543 20.5126L17.8163 19.7057C19.3156 18.7556 21.0745 17.7376 22.7709 16.838L23.9911 16.1909L23.5326 15.9976C22.4966 15.5607 18.247 14.1797 17.9388 14.1797C17.9052 14.1797 17.8232 14.3511 17.757 14.5605ZM34.6172 14.5866C33.2304 14.9939 31.2729 15.6595 30.4718 15.9963L30.0177 16.1872L31.8194 17.1575C33.554 18.0918 35.8924 19.4746 36.9316 20.1806C37.5207 20.5809 37.509 20.6443 37.1882 18.7945C36.791 16.5034 36.2123 14.1734 36.0436 14.1852C36.0003 14.1882 35.3584 14.3688 34.6172 14.5866ZM24.9492 18.4737C22.4365 19.7425 20.4254 20.9054 18.0158 22.483L16.1215 23.7232L16.0236 25.0745C15.9698 25.8177 15.9257 28.0342 15.9257 30C15.9257 31.9658 15.9698 34.1823 16.0236 34.9255L16.1215 36.2768L18.0158 37.5169C20.5016 39.144 22.3782 40.2264 24.9199 41.4989L27.0001 42.5404L28.977 41.5505C31.5171 40.2789 33.6146 39.072 35.9838 37.5189L37.8778 36.2774L37.976 34.8086C38.03 34.0008 38.0742 31.8369 38.0742 30C38.0742 28.1631 38.03 25.9992 37.976 25.1914L37.8778 23.7226L35.9838 22.4829C33.4987 20.8562 31.6217 19.7736 29.0813 18.5017C27.9379 17.9293 26.9887 17.4625 26.972 17.4643C26.9551 17.4661 26.0449 17.9203 24.9492 18.4737ZM25.6511 22.6191C22.6632 23.2132 20.3612 25.4614 19.6899 28.4411C18.9411 31.7657 20.6444 35.222 23.7773 36.7351C24.6761 37.1693 26.0697 37.5 27 37.5C28.5565 37.5 30.4282 36.8266 31.7203 35.8017C33.3658 34.4966 34.5 32.1294 34.5 30C34.5 28.4435 33.8266 26.5718 32.8017 25.2797C31.1882 23.2454 28.1627 22.1197 25.6511 22.6191ZM25.7833 25.0839C24.4268 25.4244 23.0451 26.6043 22.3946 27.9775C22.0467 28.7121 22.0195 28.8587 22.0195 30C22.0195 31.1413 22.0467 31.2879 22.3946 32.0225C22.9157 33.1226 23.784 34.0051 24.8757 34.5448C25.7256 34.9648 25.8022 34.9805 27 34.9805C28.1977 34.9805 28.2744 34.9648 29.1242 34.5448C30.2159 34.0051 31.0842 33.1226 31.6053 32.0225C31.9532 31.2879 31.9804 31.1413 31.9804 30C31.9804 28.8587 31.9532 28.7121 31.6053 27.9775C31.0902 26.89 30.2143 25.9941 29.1545 25.4702C28.4089 25.1017 28.1751 25.0446 27.2708 25.0096C26.7029 24.9877 26.0335 25.0211 25.7833 25.0839ZM12.9862 26.1069C12.7875 26.2823 12.1547 26.8337 11.58 27.3322C11.0053 27.8307 10.1132 28.6345 9.59762 29.1184L8.66012 29.9982L9.18747 30.4809C9.47751 30.7465 10.084 31.3138 10.5351 31.7416C11.2972 32.4642 13.3465 34.2188 13.4285 34.2188C13.4485 34.2188 13.4648 32.3203 13.4648 30C13.4648 27.6797 13.4384 25.7828 13.4062 25.7847C13.374 25.7865 13.185 25.9316 12.9862 26.1069ZM40.5351 30C40.5351 32.3203 40.5526 34.2188 40.574 34.2188C40.7483 34.2188 45.2812 30.1464 45.2812 29.9898C45.2812 29.8431 40.7338 25.7813 40.5696 25.7813C40.5506 25.7813 40.5351 27.6797 40.5351 30ZM6.22051 32.8418C3.46965 36.3728 2.10876 39.75 2.50579 42.0595C2.5788 42.4845 2.76383 43.1075 2.917 43.4443L3.19532 44.0566L3.87688 43.7425C5.25114 43.1088 6.85555 43.4086 7.98231 44.5093C8.47216 44.9879 8.96833 45.8286 9.11083 46.4216C9.15524 46.6062 9.29118 46.7583 9.44985 46.8008C10.0448 46.9602 12.4303 46.8272 14.5852 46.5144L15.4713 46.3857L15.085 44.8433C14.6949 43.2853 14.0792 39.8589 13.9303 38.4159L13.8493 37.6325L12.661 36.7181C11.205 35.5976 9.46251 34.108 8.11696 32.8335C7.56044 32.3064 7.07551 31.875 7.0393 31.875C7.00321 31.875 6.63465 32.31 6.22051 32.8418ZM46.389 32.3561C45.6122 33.1628 43.0769 35.3615 41.5872 36.5203L40.1785 37.6163L39.9154 39.521C39.6379 41.5301 39.2213 43.6852 38.7859 45.3642L38.5243 46.373L39.8227 46.5656C43.5036 47.1118 46.642 46.849 48.6719 45.8242C49.68 45.3154 50.597 44.4192 51.0488 43.5012C51.3942 42.7997 51.4357 42.6022 51.4742 41.4757C51.508 40.491 51.4653 40.0231 51.272 39.2588C50.9757 38.0869 50.1021 36.2218 49.1988 34.8329C48.4455 33.6745 47.0708 31.875 46.9393 31.875C46.8914 31.875 46.6438 32.0914 46.389 32.3561ZM16.6223 40.0506C16.8531 41.6879 17.6515 45.3697 17.8425 45.6768C17.9148 45.7931 18.2495 45.7348 19.3581 45.4126C20.5886 45.055 22.5256 44.3967 23.649 43.9542C23.9826 43.8227 23.9472 43.797 21.8912 42.6756C20.7371 42.0462 19.0619 41.0733 18.1686 40.5135L16.5441 39.4957L16.6223 40.0506ZM35.789 40.5237C34.9189 41.0776 33.2652 42.0445 32.114 42.6725L30.0212 43.8142L30.4734 44.0044C31.2791 44.3431 33.2353 45.0032 34.6671 45.4197C35.7564 45.7364 36.085 45.7931 36.1575 45.6768C36.4107 45.2697 37.5945 39.4526 37.4137 39.5044C37.3903 39.5111 36.6591 39.9697 35.789 40.5237ZM25.1836 45.9437C23.6546 46.5788 20.7764 47.5719 19.2484 47.9918L18.5866 48.1737L18.9306 49.0771C20.2277 52.4842 22.2242 55.4202 24.0749 56.6421C25.4309 57.5374 27.1202 57.8139 28.4648 57.3606C30.9426 56.5253 33.4136 53.426 35.0694 49.0771L35.4133 48.1737L34.7516 47.9879C32.8525 47.4551 31.1774 46.8863 29.201 46.1033C27.9945 45.6254 26.9662 45.2407 26.9158 45.2484C26.8654 45.2562 26.0859 45.5691 25.1836 45.9437ZM4.91012 45.9266C4.1293 46.2677 3.82591 47.2465 4.28903 47.9297C4.79059 48.6696 5.72305 48.773 6.37778 48.1615C6.66723 47.8911 6.72653 47.7437 6.72653 47.295C6.72653 46.8478 6.66067 46.6831 6.34567 46.3419C5.94219 45.9049 5.35122 45.734 4.91012 45.9266Z" fill="#0B2545"/>
</svg>
