<svg width="42" height="60" viewBox="0 0 42 60" fill="none" xmlns="http://www.w3.org/2000/svg">
<path fill-rule="evenodd" clip-rule="evenodd" d="M1.50293 0.250672C1.12102 0.579148 1.02024 1.01028 0.903868 2.81251C0.694806 6.05005 1.45512 9.82325 2.94914 12.9624L3.62473 14.3818L5.0175 15.0717C5.78344 15.4513 6.43336 15.7761 6.46172 15.7937C6.48996 15.8113 6.39211 15.9104 6.24422 16.0142C5.8916 16.2612 5.65348 16.8483 5.73434 17.2716C5.77617 17.4901 6.21703 18.0438 6.98344 18.8401C10.519 22.5134 14.9024 24.695 20.1711 25.4036L20.807 25.489L21.4874 26.7777C21.8616 27.4865 22.1687 28.106 22.1698 28.1543C22.1709 28.2026 20.7709 28.2422 19.0587 28.2422C17.1476 28.2422 15.8585 28.2888 15.7201 28.3629C15.1875 28.6479 15.1406 28.9724 15.1411 32.3672C15.1414 35.3291 15.1584 35.5941 15.3694 35.9401C15.6224 36.3551 16.1573 36.5608 16.9863 36.5618L17.4844 36.5625V37.6758V38.7891H15.5527H13.6209L13.2718 39.1113C13.0799 39.2885 11.5761 41.593 9.93024 44.2323L6.9375 49.031V54.173V59.3149L7.28004 59.6575L7.62258 60H23.9774H40.3322L40.7149 59.6581L41.0977 59.3161V54.1754V49.0348L38.0119 44.0942C36.3148 41.3768 34.8435 39.0846 34.7424 39.0006C34.6109 38.8913 33.9791 38.8371 32.5253 38.8109L30.4922 38.774V37.684V36.594L31.3358 36.5337C32.0972 36.4792 32.2115 36.4375 32.5077 36.1059L32.8359 35.7384V32.3329V28.9273L32.4934 28.5847L32.1509 28.2422H28.5248H24.8988L24.5119 27.3547C24.2991 26.8665 23.8129 25.9059 23.4314 25.22L22.7379 23.9729L22.8162 22.6798C23.1299 17.5044 21.2382 11.8974 17.7769 7.74235C16.7245 6.47907 14.9722 4.82649 14.4502 4.60489C13.9913 4.41001 13.5518 4.48466 13.1944 4.81817L12.9475 5.04856L12.87 4.38915C12.7361 3.2495 12.6285 3.13876 10.772 2.22727C8.12227 0.926258 5.46762 0.182117 2.94856 0.0342263C1.88918 -0.0278831 1.81359 -0.0166331 1.50293 0.250672ZM3.30469 3.58173C3.30469 6.37735 3.84223 8.96063 4.96406 11.5566L5.42578 12.6249L6.32813 13.0445C7.68469 13.6753 8.30824 13.8974 9.33985 14.1172C10.695 14.406 10.6827 14.4006 10.9295 14.8054C11.2232 15.287 11.2171 15.8285 10.9137 16.2143C10.7802 16.384 10.2974 16.7447 9.84071 17.0161L9.01031 17.5093L9.76102 18.187C11.8109 20.0375 14.5497 21.566 17.1328 22.3013C18.5909 22.7162 18.7734 22.7521 18.7734 22.6236C18.7734 22.4865 16.118 19.805 14.9941 18.8073C14.2842 18.1772 14.2031 18.0602 14.2031 17.6677C14.2031 17.0966 14.6852 16.5407 15.2578 16.4514C15.5813 16.4009 15.7712 16.4575 16.1565 16.719C17.0547 17.3289 18.5572 18.681 19.4924 19.721L20.4182 20.7506L20.3613 20.307C20.1086 18.3355 20.0067 17.7406 19.7589 16.7869C19.1978 14.6274 18.1641 12.4011 16.8483 10.5189C16.2931 9.7247 14.37 7.50001 14.2386 7.50001C14.1993 7.50001 13.9811 7.71716 13.7539 7.9827C12.5787 9.35567 11.6436 9.70255 10.9027 9.04044L10.5281 8.70575L10.5564 7.00934C10.572 6.07618 10.5507 5.17782 10.5094 5.0127C10.4494 4.77376 10.2203 4.61333 9.38449 4.22497C7.66512 3.4261 5.96649 2.92149 3.68555 2.53184L3.30469 2.4668V3.58173ZM17.6016 32.3438V34.1016H24.0469H30.4922V32.3438V30.5859H24.0469H17.6016V32.3438ZM19.9453 37.6758V38.7891H24.0469H28.1484V37.6758V36.5625H24.0469H19.9453V37.6758ZM14.3981 41.6895C14.246 41.9312 13.0588 43.8294 11.76 45.9079L9.39844 49.6868V51.2692V52.8516H12.2695H15.1406V49.8709C15.1406 48.2182 15.1915 46.7564 15.2549 46.5898C15.3177 46.4244 15.5419 46.1838 15.7529 46.0552C16.1264 45.8275 16.3477 45.8211 23.9514 45.8208C28.5387 45.8206 31.8854 45.8658 32.0554 45.9304C32.2145 45.9908 32.4552 46.159 32.5903 46.304C32.827 46.558 32.8359 46.6817 32.8359 49.7097V52.8516H35.7656H38.6953V51.3156V49.7795L36.0293 45.5148L33.3633 41.2501H24.0191L14.6748 41.25L14.3981 41.6895ZM17.6016 50.5664V52.8516H24.0469H30.4922V50.5664V48.2813H24.0469H17.6016V50.5664ZM9.39844 56.4844V57.6563H24.0469H38.6953V56.4844V55.3125H24.0469H9.39844V56.4844Z" fill="#0B2545"/>
</svg>
