<svg width="58" height="58" viewBox="0 0 58 58" fill="none" xmlns="http://www.w3.org/2000/svg">
<path fill-rule="evenodd" clip-rule="evenodd" d="M7.20317 1.10797C4.14774 1.91961 1.86938 4.23406 1.09594 7.31211C0.755744 8.66586 0.823361 10.5946 1.25754 11.9232C2.09063 14.4727 4.05762 16.4466 6.67582 17.3606C7.53727 17.6614 7.75102 17.6877 9.31254 17.6855C10.8313 17.6833 11.1086 17.6505 11.9232 17.3764C14.4961 16.5106 16.5107 14.4961 17.3764 11.9232C17.6513 11.1065 17.6831 10.835 17.6831 9.3125C17.6831 7.79 17.6513 7.51847 17.3764 6.70179C16.5093 4.12461 14.4748 2.09304 11.9232 1.25644C10.6458 0.837496 8.47817 0.769411 7.20317 1.10797ZM46.5782 1.10797C43.5227 1.91961 41.2444 4.23406 40.4709 7.31211C40.1307 8.66586 40.1984 10.5946 40.6325 11.9232C41.4656 14.4727 43.4326 16.4466 46.0508 17.3606C46.9123 17.6614 47.126 17.6877 48.6875 17.6855C50.2063 17.6833 50.4836 17.6505 51.2982 17.3764C53.8711 16.5106 55.8857 14.4961 56.7515 11.9232C57.0263 11.1065 57.0581 10.835 57.0581 9.3125C57.0581 7.79 57.0263 7.51847 56.7515 6.70179C55.8843 4.12461 53.8498 2.09304 51.2982 1.25644C50.0208 0.837496 47.8532 0.769411 46.5782 1.10797ZM8.48965 2.86554C5.55879 3.23797 3.24235 5.56636 2.8725 8.51175C2.69754 9.90558 3.02356 11.4799 3.7268 12.6358L4.00184 13.088L4.3036 12.5732C4.59797 12.0709 5.46551 11.1873 6.01008 10.8355L6.28172 10.6598L5.95149 10.0741C5.65324 9.54523 5.62113 9.37988 5.62172 8.375C5.62219 7.39543 5.65969 7.19129 5.93379 6.67578C6.30727 5.97359 6.95332 5.33586 7.67192 4.96004C8.11793 4.72683 8.37106 4.68429 9.31254 4.68429C10.254 4.68429 10.5072 4.72683 10.9532 4.96004C11.6718 5.33586 12.3178 5.97359 12.6913 6.67578C12.9654 7.19129 13.0029 7.39543 13.0034 8.375C13.0039 9.37988 12.9718 9.54523 12.6736 10.0741L12.3434 10.6598L12.615 10.8355C13.1596 11.1873 14.0271 12.0709 14.3215 12.5732L14.6232 13.088L14.8983 12.6358C16.163 10.5569 16.0901 7.81906 14.7143 5.72117C13.3794 3.68562 10.9191 2.55687 8.48965 2.86554ZM47.8647 2.86554C44.9338 3.23797 42.6174 5.56636 42.2475 8.51175C42.0725 9.90558 42.3986 11.4799 43.1018 12.6358L43.3768 13.088L43.6786 12.5732C43.973 12.0709 44.8405 11.1873 45.3851 10.8355L45.6567 10.6598L45.3265 10.0741C45.0282 9.54523 44.9961 9.37988 44.9967 8.375C44.9972 7.39543 45.0347 7.19129 45.3088 6.67578C45.6823 5.97359 46.3283 5.33586 47.0469 4.96004C47.4929 4.72683 47.7461 4.68429 48.6875 4.68429C49.629 4.68429 49.8822 4.72683 50.3282 4.96004C51.0468 5.33586 51.6928 5.97359 52.0663 6.67578C52.3404 7.19129 52.3779 7.39543 52.3784 8.375C52.3789 9.37988 52.3468 9.54523 52.0486 10.0741L51.7184 10.6598L51.99 10.8355C52.5346 11.1873 53.4021 12.0709 53.6965 12.5732L53.9982 13.088L54.2733 12.6358C55.538 10.5569 55.4651 7.81906 54.0893 5.72117C52.7544 3.68562 50.2941 2.55687 47.8647 2.86554ZM25.281 3.92527C23.0586 4.2616 19.2735 5.36339 19.2735 5.67394C19.2735 5.72574 19.3526 5.95929 19.4493 6.19273C19.5459 6.42617 19.6998 6.79777 19.7912 7.01855L19.9573 7.41992L20.8443 7.0755C23.2048 6.15886 26.0589 5.67101 29.0586 5.67136C31.9714 5.67172 34.8069 6.16343 37.1564 7.07574L38.044 7.42039L38.3235 6.78839C38.8564 5.58324 38.8751 5.63679 37.7742 5.21222C34.2156 3.83984 29.2351 3.32679 25.281 3.92527ZM8.76352 6.62914C8.24965 6.77785 7.70238 7.35804 7.55309 7.91246C7.22074 9.14644 8.39367 10.411 9.65168 10.175C10.2052 10.0712 10.9223 9.39336 11.0738 8.83109C11.317 7.92757 10.7038 6.88179 9.7745 6.61519C9.31254 6.48277 9.26719 6.48336 8.76352 6.62914ZM48.1385 6.62914C47.6247 6.77785 47.0774 7.35804 46.9281 7.91246C46.5957 9.14644 47.7687 10.411 49.0267 10.175C49.5802 10.0712 50.2973 9.39336 50.4488 8.83109C50.692 7.92757 50.0788 6.88179 49.1495 6.61519C48.6875 6.48277 48.6422 6.48336 48.1385 6.62914ZM7.65094 12.2885C6.90024 12.4906 6.31899 12.965 5.96414 13.6654C5.5561 14.4705 5.61457 14.6954 6.33188 15.0799C8.03754 15.9939 10.5875 15.9939 12.2932 15.0799C13.0218 14.6893 13.0774 14.4505 12.6311 13.6294C12.231 12.8935 11.6091 12.4189 10.8243 12.2506C10.0467 12.0839 8.33485 12.1043 7.65094 12.2885ZM27.6524 12.2827C26.3196 12.7241 25.3097 13.6017 24.7323 14.82C24.3994 15.5224 24.3711 15.6794 24.3711 16.8266C24.3711 18.0287 24.3858 18.0996 24.7998 18.9066C25.1641 19.6168 25.1978 19.7422 25.0236 19.7422C24.6267 19.7422 23.4183 20.4452 22.8661 20.9974C22.5588 21.3046 22.139 21.8982 21.9331 22.3162L21.5586 23.0763L21.5236 27.1652C21.4924 30.8141 21.5092 31.2768 21.6799 31.4655C21.7852 31.5818 22.4196 32.0369 23.0898 32.4771L24.3084 33.2773L24.3104 39.3214L24.3125 45.3653L24.5837 45.6202C24.8517 45.8719 24.905 45.875 29.0165 45.875H33.1779L33.4328 45.6038C33.6874 45.3327 33.6875 45.331 33.6897 39.305L33.6916 33.2773L34.9103 32.4771C35.5805 32.0369 36.2149 31.5818 36.3202 31.4655C36.4909 31.2768 36.5077 30.8141 36.4765 27.1652L36.4414 23.0763L36.067 22.3162C35.8611 21.8982 35.4413 21.3046 35.134 20.9974C34.5818 20.4452 33.3734 19.7422 32.9765 19.7422C32.8023 19.7422 32.8359 19.6168 33.2003 18.9066C33.6143 18.0996 33.6289 18.0287 33.6289 16.8266C33.6289 15.6794 33.6007 15.5224 33.2678 14.82C32.8029 13.8391 31.9682 13.0059 30.9926 12.5491C30.3499 12.2482 30.0652 12.1871 29.1758 12.1598C28.5278 12.14 27.9404 12.1873 27.6524 12.2827ZM47.0259 12.2885C46.2752 12.4906 45.694 12.965 45.3391 13.6654C44.9311 14.4705 44.9896 14.6954 45.7069 15.0799C47.4125 15.9939 49.9625 15.9939 51.6682 15.0799C52.3968 14.6893 52.4524 14.4505 52.0061 13.6294C51.606 12.8935 50.9841 12.4189 50.1993 12.2506C49.4217 12.0839 47.7099 12.1043 47.0259 12.2885ZM28.2759 14.1609C25.866 14.8212 25.5254 18.1132 27.7486 19.2573C29.3323 20.0723 31.3109 19.1401 31.6833 17.4035C32.1149 15.3914 30.2527 13.6191 28.2759 14.1609ZM16.7716 16.7792C16.4591 17.1972 16.2482 17.5837 16.3029 17.6381C16.3576 17.6925 17.2137 18.345 18.2052 19.0879L20.0079 20.4389L20.5913 19.6684C21.0765 19.0272 21.1478 18.8729 21.015 18.75C20.8358 18.584 17.6394 16.1912 17.4571 16.0865C17.3926 16.0495 17.0842 16.3612 16.7716 16.7792ZM38.8302 17.3496C37.8387 18.0925 36.9823 18.7453 36.9272 18.8001C36.8719 18.8551 37.088 19.2444 37.4095 19.6693L37.9922 20.4389L39.7949 19.0879C40.7864 18.345 41.6428 17.6922 41.6979 17.6374C41.7532 17.5824 41.5371 17.1931 41.2156 16.7682L40.6329 15.9986L38.8302 17.3496ZM5.22785 20.1854C3.46758 24.75 3.19477 30.6023 4.51219 35.5388C4.91004 37.0294 5.52668 38.7266 5.67047 38.7266C5.89512 38.7266 7.3759 38.0423 7.35 37.9504C7.33406 37.8939 7.11129 37.2328 6.85477 36.4812C5.56758 32.7094 5.29055 28.3074 6.09153 24.3519C6.25488 23.5452 6.59836 22.2703 6.85477 21.5187C7.11129 20.7672 7.33406 20.1061 7.35 20.0496C7.3759 19.9577 5.89512 19.2734 5.67047 19.2734C5.62043 19.2734 5.42133 19.6838 5.22785 20.1854ZM51.3829 19.619C50.9639 19.7984 50.6341 19.9919 50.6501 20.0489C50.666 20.1057 50.8888 20.7672 51.1453 21.5187C52.6763 26.0049 52.7625 31.1337 51.385 35.7707C51.1969 36.404 50.9361 37.1712 50.8057 37.4756L50.5685 38.0291L51.232 38.3225C52.4269 38.8509 52.3642 38.8727 52.7841 37.7837C54.4929 33.3528 54.7867 27.612 53.5545 22.7305C53.1101 20.9698 52.4825 19.2691 52.2825 19.283C52.2067 19.2883 51.8018 19.4395 51.3829 19.619ZM25.4508 21.6625C24.7172 21.8653 24.0913 22.3839 23.7271 23.0909C23.4368 23.6546 23.4333 23.6975 23.4001 27.0043L23.3667 30.3477L24.4497 31.0508C25.0452 31.4375 25.6799 31.8773 25.86 32.028L26.1875 32.3021V38.1511V44H29H31.8125V38.1511V32.3021L32.1401 32.028C32.3202 31.8773 32.9522 31.4375 33.5445 31.0508L34.6214 30.3477L34.6232 27.3358C34.6242 25.5935 34.5711 24.0725 34.4971 23.7273C34.3304 22.9502 33.7733 22.2328 33.0455 21.858C32.4677 21.5605 32.4444 21.5585 29.2379 21.533C26.8556 21.5142 25.865 21.548 25.4508 21.6625ZM18.2052 38.9121C17.2137 39.655 16.3573 40.3078 16.3022 40.3626C16.2469 40.4176 16.463 40.8069 16.7845 41.2318L17.3672 42.0014L19.1699 40.6504C20.1614 39.9075 21.0178 39.2547 21.0729 39.1999C21.1282 39.1449 20.9121 38.7556 20.5905 38.3307L20.0079 37.5611L18.2052 38.9121ZM37.3966 38.3417C37.0841 38.7597 36.8732 39.1462 36.9279 39.2006C36.9826 39.255 37.8387 39.9075 38.8302 40.6504L40.6329 42.0014L41.2163 41.2309C41.7015 40.5897 41.7728 40.4354 41.64 40.3125C41.4608 40.1465 38.2644 37.7537 38.0821 37.649C38.0176 37.612 37.7092 37.9237 37.3966 38.3417ZM7.20317 40.483C4.14774 41.2946 1.86938 43.6091 1.09594 46.6871C0.755744 48.0409 0.823361 49.9696 1.25754 51.2982C2.09063 53.8477 4.05762 55.8216 6.67582 56.7356C7.53727 57.0364 7.75102 57.0627 9.31254 57.0605C10.8313 57.0583 11.1086 57.0255 11.9232 56.7514C14.4961 55.8856 16.5107 53.8711 17.3764 51.2982C17.6513 50.4815 17.6831 50.21 17.6831 48.6875C17.6831 47.165 17.6513 46.8935 17.3764 46.0768C16.5093 43.4996 14.4748 41.468 11.9232 40.6314C10.6458 40.2125 8.47817 40.1444 7.20317 40.483ZM46.5782 40.483C43.5227 41.2946 41.2444 43.6091 40.4709 46.6871C40.1307 48.0409 40.1984 49.9696 40.6325 51.2982C41.4656 53.8477 43.4326 55.8216 46.0508 56.7356C46.9123 57.0364 47.126 57.0627 48.6875 57.0605C50.2063 57.0583 50.4836 57.0255 51.2982 56.7514C53.8711 55.8856 55.8857 53.8711 56.7515 51.2982C57.0263 50.4815 57.0581 50.21 57.0581 48.6875C57.0581 47.165 57.0263 46.8935 56.7515 46.0768C55.8843 43.4996 53.8498 41.468 51.2982 40.6314C50.0208 40.2125 47.8532 40.1444 46.5782 40.483ZM8.48965 42.2405C5.55879 42.613 3.24235 44.9414 2.8725 47.8868C2.69754 49.2806 3.02356 50.8549 3.7268 52.0108L4.00184 52.463L4.3036 51.9482C4.59797 51.4459 5.46551 50.5623 6.01008 50.2105L6.28172 50.0348L5.95149 49.4491C5.65324 48.9202 5.62113 48.7549 5.62172 47.75C5.62219 46.7704 5.65969 46.5663 5.93379 46.0508C6.30727 45.3486 6.95332 44.7109 7.67192 44.335C8.11793 44.1018 8.37106 44.0593 9.31254 44.0593C10.254 44.0593 10.5072 44.1018 10.9532 44.335C11.6718 44.7109 12.3178 45.3486 12.6913 46.0508C12.9654 46.5663 13.0029 46.7704 13.0034 47.75C13.0039 48.7549 12.9718 48.9202 12.6736 49.4491L12.3434 50.0348L12.615 50.2105C13.1596 50.5623 14.0271 51.4459 14.3215 51.9482L14.6232 52.463L14.8983 52.0108C16.163 49.9319 16.0901 47.1941 14.7143 45.0962C13.3794 43.0606 10.9191 41.9319 8.48965 42.2405ZM47.8647 42.2405C44.9338 42.613 42.6174 44.9414 42.2475 47.8868C42.0725 49.2806 42.3986 50.8549 43.1018 52.0108L43.3768 52.463L43.6786 51.9482C43.973 51.4459 44.8405 50.5623 45.3851 50.2105L45.6567 50.0348L45.3265 49.4491C45.0282 48.9202 44.9961 48.7549 44.9967 47.75C44.9972 46.7704 45.0347 46.5663 45.3088 46.0508C45.6823 45.3486 46.3283 44.7109 47.0469 44.335C47.4929 44.1018 47.7461 44.0593 48.6875 44.0593C49.629 44.0593 49.8822 44.1018 50.3282 44.335C51.0468 44.7109 51.6928 45.3486 52.0663 46.0508C52.3404 46.5663 52.3779 46.7704 52.3784 47.75C52.3789 48.7549 52.3468 48.9202 52.0486 49.4491L51.7184 50.0348L51.99 50.2105C52.5346 50.5623 53.4021 51.4459 53.6965 51.9482L53.9982 52.463L54.2733 52.0108C55.538 49.9319 55.4651 47.1941 54.0893 45.0962C52.7544 43.0606 50.2941 41.9319 47.8647 42.2405ZM8.76352 46.0041C8.24965 46.1528 7.70238 46.733 7.55309 47.2875C7.22074 48.5214 8.39367 49.786 9.65168 49.55C10.2052 49.4462 10.9223 48.7684 11.0738 48.2061C11.317 47.3026 10.7038 46.2568 9.7745 45.9902C9.31254 45.8578 9.26719 45.8584 8.76352 46.0041ZM48.1385 46.0041C47.6247 46.1528 47.0774 46.733 46.9281 47.2875C46.5957 48.5214 47.7687 49.786 49.0267 49.55C49.5802 49.4462 50.2973 48.7684 50.4488 48.2061C50.692 47.3026 50.0788 46.2568 49.1495 45.9902C48.6875 45.8578 48.6422 45.8584 48.1385 46.0041ZM19.7912 50.9814C19.6998 51.2022 19.5459 51.5738 19.4493 51.8073C19.3526 52.0407 19.2735 52.2743 19.2735 52.3261C19.2735 52.4867 21.1028 53.1358 22.7162 53.5476C26.7379 54.5743 31.2196 54.5768 35.2696 53.5544C36.8555 53.1541 38.7266 52.4893 38.7266 52.3261C38.7266 52.2743 38.6475 52.0407 38.5508 51.8073C38.4541 51.5738 38.3003 51.2022 38.2089 50.9814L38.0428 50.5801L37.1558 50.9245C33.0681 52.5118 27.5871 52.7787 23.0591 51.6112C22.3287 51.4229 21.332 51.1139 20.8443 50.9245L19.9573 50.5801L19.7912 50.9814ZM7.65094 51.6635C6.90024 51.8656 6.31899 52.34 5.96414 53.0404C5.5561 53.8455 5.61457 54.0704 6.33188 54.4549C8.03754 55.3689 10.5875 55.3689 12.2932 54.4549C13.0218 54.0643 13.0774 53.8255 12.6311 53.0045C12.231 52.2685 11.6091 51.7939 10.8243 51.6256C10.0467 51.4589 8.33485 51.4793 7.65094 51.6635ZM47.0259 51.6635C46.2752 51.8656 45.694 52.34 45.3391 53.0404C44.9311 53.8455 44.9896 54.0704 45.7069 54.4549C47.4125 55.3689 49.9625 55.3689 51.6682 54.4549C52.3968 54.0643 52.4524 53.8255 52.0061 53.0045C51.606 52.2685 50.9841 51.7939 50.1993 51.6256C49.4217 51.4589 47.7099 51.4793 47.0259 51.6635Z" fill="#0B2545"/>
</svg>
